<svg width="369" height="49" viewBox="0 0 369 49" fill="none" xmlns="http://www.w3.org/2000/svg">
<path d="M12.3255 38.528H29.7335C31.1415 38.528 32.1655 38.6987 32.8055 39.04C33.4455 39.3387 33.8722 39.8293 34.0855 40.512C34.2988 41.1947 34.4055 42.112 34.4055 43.264C34.4055 44.3733 34.2988 45.2693 34.0855 45.952C33.8722 46.6347 33.5095 47.104 32.9975 47.36C32.1868 47.7867 31.0775 48 29.6695 48H6.6295C3.64283 48 1.8935 47.1893 1.3815 45.568C1.1255 44.8853 0.9975 43.7973 0.9975 42.304V6.72C0.9975 5.73866 1.01883 5.01333 1.0615 4.544C1.14683 4.032 1.36017 3.456 1.7015 2.816C2.29883 1.664 3.96283 1.088 6.6935 1.088C9.68017 1.088 11.4508 1.87733 12.0055 3.456C12.2188 4.18133 12.3255 5.29066 12.3255 6.784V38.528ZM49.888 36.672H69.6C70.5813 36.672 71.3067 36.7147 71.776 36.8C72.288 36.8427 72.864 37.0347 73.504 37.376C74.656 37.9733 75.232 39.6373 75.232 42.368C75.232 45.3547 74.4427 47.104 72.864 47.616C72.1387 47.872 71.0293 48 69.536 48H44.192C41.2053 48 39.456 47.1893 38.944 45.568C38.688 44.8853 38.56 43.7973 38.56 42.304V6.72C38.56 4.544 38.9653 3.072 39.776 2.304C40.5867 1.49333 42.1227 1.088 44.384 1.088H69.6C70.5813 1.088 71.3067 1.13066 71.776 1.216C72.288 1.25867 72.864 1.45066 73.504 1.792C74.656 2.38933 75.232 4.05333 75.232 6.784C75.232 9.77067 74.4427 11.52 72.864 12.032C72.1387 12.288 71.0293 12.416 69.536 12.416H49.888V18.88H62.56C63.5413 18.88 64.2667 18.9227 64.736 19.008C65.248 19.0507 65.824 19.2427 66.464 19.584C67.616 20.1813 68.192 21.8453 68.192 24.576C68.192 27.5627 67.3813 29.312 65.76 29.824C65.0347 30.08 63.9253 30.208 62.432 30.208H49.888V36.672ZM82.4445 1.024H118.029C119.394 1.024 120.397 1.19467 121.037 1.536C121.677 1.83466 122.103 2.32533 122.317 3.008C122.53 3.69066 122.637 4.58666 122.637 5.696C122.637 6.80533 122.53 7.70133 122.317 8.384C122.103 9.024 121.741 9.472 121.229 9.728C120.461 10.112 119.373 10.304 117.965 10.304H105.741V42.496C105.741 43.4773 105.698 44.2027 105.613 44.672C105.57 45.1413 105.378 45.696 105.037 46.336C104.738 46.9333 104.183 47.36 103.373 47.616C102.562 47.872 101.495 48 100.173 48C98.8498 48 97.7832 47.872 96.9725 47.616C96.2045 47.36 95.6498 46.9333 95.3085 46.336C95.0098 45.696 94.8178 45.1413 94.7325 44.672C94.6898 44.16 94.6685 43.4133 94.6685 42.432V10.304H82.3805C81.0152 10.304 80.0125 10.1547 79.3725 9.856C78.7325 9.51466 78.3058 9.00267 78.0925 8.32C77.8792 7.63733 77.7725 6.74133 77.7725 5.632C77.7725 4.52266 77.8792 3.648 78.0925 3.008C78.3058 2.32533 78.6685 1.856 79.1805 1.6C79.9485 1.216 81.0365 1.024 82.4445 1.024ZM136.105 2.432C136.83 3.15733 137.193 4.39466 137.193 6.144V7.168C137.193 8.23466 137.15 9.024 137.065 9.536C136.766 13.2907 135.657 16.512 133.737 19.2C131.817 21.888 129.385 23.232 126.441 23.232C126.142 23.232 125.865 23.0187 125.609 22.592C125.396 22.1227 125.289 21.5253 125.289 20.8C125.289 20.0747 125.374 19.52 125.545 19.136C125.758 18.7093 125.972 18.4747 126.185 18.432C126.441 18.3467 126.633 18.304 126.761 18.304C126.889 18.2613 127.124 18.1547 127.465 17.984C127.806 17.7707 128.105 17.4933 128.361 17.152C129.044 16.256 129.428 14.8693 129.513 12.992C128.062 12.7787 126.974 12.3093 126.249 11.584C125.566 10.8587 125.225 9.32266 125.225 6.976C125.225 5.26933 125.438 4.01066 125.865 3.2C126.292 2.34666 126.932 1.792 127.785 1.536C128.681 1.23733 130.046 1.088 131.881 1.088C133.716 1.088 135.124 1.536 136.105 2.432ZM142.077 41.408C140.967 40.0427 140.413 38.8267 140.413 37.76C140.413 36.6507 141.33 35.2 143.165 33.408C144.231 32.384 145.362 31.872 146.557 31.872C147.751 31.872 149.415 32.9387 151.549 35.072C152.146 35.7973 152.999 36.5013 154.109 37.184C155.218 37.824 156.242 38.144 157.181 38.144C161.149 38.144 163.133 36.5227 163.133 33.28C163.133 32.2987 162.578 31.488 161.469 30.848C160.402 30.1653 159.058 29.6747 157.437 29.376C155.815 29.0773 154.066 28.608 152.189 27.968C150.311 27.2853 148.562 26.496 146.941 25.6C145.319 24.704 143.954 23.296 142.845 21.376C141.778 19.4133 141.245 17.0667 141.245 14.336C141.245 10.5813 142.631 7.31733 145.405 4.544C148.221 1.728 152.039 0.319996 156.861 0.319996C159.421 0.319996 161.746 0.66133 163.837 1.344C165.97 1.984 167.442 2.64533 168.253 3.328L169.853 4.544C171.175 5.78133 171.837 6.82666 171.837 7.68C171.837 8.53333 171.325 9.70667 170.301 11.2C168.85 13.3333 167.357 14.4 165.821 14.4C164.925 14.4 163.815 13.9733 162.493 13.12C162.365 13.0347 162.109 12.8213 161.725 12.48C161.383 12.1387 161.063 11.8613 160.765 11.648C159.869 11.0933 158.717 10.816 157.309 10.816C155.943 10.816 154.791 11.1573 153.853 11.84C152.957 12.48 152.509 13.3973 152.509 14.592C152.509 15.744 153.042 16.6827 154.109 17.408C155.218 18.1333 156.583 18.624 158.205 18.88C159.826 19.136 161.597 19.5413 163.517 20.096C165.437 20.608 167.207 21.248 168.829 22.016C170.45 22.784 171.794 24.128 172.861 26.048C173.97 27.9253 174.525 30.2507 174.525 33.024C174.525 35.7973 173.97 38.2507 172.861 40.384C171.751 42.4747 170.301 44.096 168.509 45.248C165.053 47.5093 161.362 48.64 157.437 48.64C155.431 48.64 153.533 48.4053 151.741 47.936C149.949 47.424 148.498 46.8053 147.389 46.08C145.127 44.7147 143.549 43.392 142.653 42.112L142.077 41.408ZM229.497 10.56C230.606 12.8213 231.161 15.3387 231.161 18.112C231.161 20.8853 230.606 23.4027 229.497 25.664C228.387 27.8827 226.958 29.6533 225.208 30.976C221.667 33.7067 217.998 35.072 214.201 35.072H206.201V42.304C206.201 43.2853 206.158 44.032 206.073 44.544C206.03 45.0133 205.838 45.568 205.497 46.208C204.899 47.36 203.235 47.936 200.505 47.936C197.518 47.936 195.769 47.1467 195.257 45.568C195.001 44.8427 194.873 43.7333 194.873 42.24V6.72C194.873 5.73866 194.894 5.01333 194.937 4.544C195.022 4.032 195.235 3.456 195.577 2.816C196.174 1.664 197.838 1.088 200.569 1.088H214.265C218.019 1.088 221.667 2.45333 225.208 5.184C226.958 6.50667 228.387 8.29867 229.497 10.56ZM214.265 23.744C215.545 23.744 216.803 23.2747 218.041 22.336C219.278 21.3973 219.897 19.9893 219.897 18.112C219.897 16.2347 219.278 14.8267 218.041 13.888C216.803 12.9067 215.523 12.416 214.201 12.416H206.201V23.744H214.265ZM246.638 38.528H264.046C265.454 38.528 266.478 38.6987 267.118 39.04C267.758 39.3387 268.185 39.8293 268.398 40.512C268.611 41.1947 268.718 42.112 268.718 43.264C268.718 44.3733 268.611 45.2693 268.398 45.952C268.185 46.6347 267.822 47.104 267.31 47.36C266.499 47.7867 265.39 48 263.982 48H240.942C237.955 48 236.206 47.1893 235.694 45.568C235.438 44.8853 235.31 43.7973 235.31 42.304V6.72C235.31 5.73866 235.331 5.01333 235.374 4.544C235.459 4.032 235.673 3.456 236.014 2.816C236.611 1.664 238.275 1.088 241.006 1.088C243.993 1.088 245.763 1.87733 246.318 3.456C246.531 4.18133 246.638 5.29066 246.638 6.784V38.528ZM299.945 4.416L317.225 40.128C317.95 41.5787 318.313 42.6667 318.313 43.392C318.313 44.928 317.075 46.3147 314.601 47.552C313.15 48.2773 311.998 48.64 311.145 48.64C310.334 48.64 309.651 48.448 309.097 48.064C308.585 47.68 308.201 47.2747 307.944 46.848C307.731 46.4213 307.411 45.7813 306.985 44.928L303.657 38.016H285.929L282.601 44.928C282.174 45.7813 281.833 46.4 281.577 46.784C281.363 47.168 280.979 47.5733 280.425 48C279.913 48.384 279.23 48.576 278.377 48.576C277.566 48.576 276.435 48.2133 274.985 47.488C272.51 46.2933 271.273 44.928 271.273 43.392C271.273 42.6667 271.635 41.5787 272.361 40.128L289.641 4.352C290.11 3.37066 290.814 2.58133 291.753 1.984C292.734 1.38666 293.758 1.088 294.825 1.088C297.129 1.088 298.835 2.19733 299.945 4.416ZM294.761 19.776L290.537 28.544H299.049L294.761 19.776ZM349.433 1.984C351.524 3.43466 352.569 4.84266 352.569 6.208C352.569 7.01867 352.078 8.14933 351.097 9.6L337.273 30.272V42.496C337.273 43.4773 337.23 44.224 337.145 44.736C337.102 45.2053 336.91 45.76 336.569 46.4C336.228 47.04 335.652 47.488 334.841 47.744C334.03 48 332.942 48.128 331.577 48.128C330.212 48.128 329.124 48 328.313 47.744C327.502 47.488 326.926 47.04 326.585 46.4C326.244 45.7173 326.03 45.1413 325.945 44.672C325.902 44.16 325.881 43.392 325.881 42.368V30.272L312.057 9.6C311.076 8.14933 310.585 7.01867 310.585 6.208C310.585 4.84266 311.524 3.54133 313.401 2.304C315.278 1.024 316.622 0.383999 317.433 0.383999C318.244 0.383999 318.884 0.554665 319.353 0.895996C320.078 1.36533 320.846 2.24 321.657 3.52L331.577 19.392L341.497 3.52C342.308 2.24 343.012 1.408 343.609 1.024C344.206 0.597332 344.889 0.383999 345.657 0.383999C346.468 0.383999 347.726 0.917332 349.433 1.984ZM356.7 38.272C357.127 37.4187 357.767 36.8427 358.62 36.544C359.516 36.2453 360.881 36.096 362.716 36.096C364.593 36.096 365.937 36.5013 366.748 37.312C367.601 38.1227 368.028 39.4027 368.028 41.152V42.176C368.028 43.2 367.985 43.968 367.9 44.48C367.857 44.9493 367.665 45.5253 367.324 46.208C366.641 47.4453 364.999 48.064 362.396 48.064C359.836 48.064 358.129 47.6587 357.276 46.848C356.465 45.9947 356.06 44.3733 356.06 41.984C356.06 40.32 356.273 39.0827 356.7 38.272ZM365.276 30.784C364.465 30.9973 363.377 31.104 362.012 31.104C360.647 31.104 359.559 30.9973 358.748 30.784C357.937 30.5707 357.361 30.1867 357.02 29.632C356.721 29.0773 356.529 28.5867 356.444 28.16C356.401 27.7333 356.38 27.072 356.38 26.176V5.888C356.38 4.992 356.401 4.33067 356.444 3.904C356.529 3.43466 356.743 2.92266 357.084 2.368C357.425 1.81333 358.001 1.42933 358.812 1.216C359.623 0.959998 360.711 0.831997 362.076 0.831997C363.441 0.831997 364.529 0.959998 365.34 1.216C366.151 1.42933 366.705 1.83467 367.004 2.432C367.345 2.98666 367.537 3.49866 367.58 3.968C367.665 4.39466 367.708 5.056 367.708 5.952V26.24C367.708 27.136 367.665 27.7973 367.58 28.224C367.537 28.6507 367.345 29.1413 367.004 29.696C366.663 30.208 366.087 30.5707 365.276 30.784Z" fill="#616264"/>
</svg>
