<svg width="504" height="49" viewBox="0 0 504 49" fill="none" xmlns="http://www.w3.org/2000/svg">
<path d="M57.7505 1.344C60.6092 2.368 62.0385 3.73333 62.0385 5.44C62.0385 5.99467 61.7825 7.04 61.2705 8.576L48.9825 44.096C48.8972 44.3947 48.7478 44.7573 48.5345 45.184C48.3212 45.6107 47.7452 46.1867 46.8065 46.912C45.9105 47.5947 44.8225 47.936 43.5425 47.936C42.3052 47.936 41.2172 47.5947 40.2785 46.912C39.3825 46.1867 38.7852 45.4827 38.4865 44.8L30.9985 22.72C26.2625 36.7147 23.8518 43.84 23.7665 44.096C23.6812 44.352 23.4892 44.7147 23.1905 45.184C22.8918 45.6533 22.5505 46.08 22.1665 46.464C21.1852 47.4453 20.0118 47.936 18.6465 47.936C17.2812 47.936 16.1505 47.616 15.2545 46.976C14.4012 46.336 13.8252 45.696 13.5265 45.056L13.0785 44.096L0.7265 8.576C0.257167 7.168 0.0225 6.12266 0.0225 5.44C0.0225 3.73333 1.45183 2.38933 4.3105 1.408C5.54783 0.981331 6.65717 0.767998 7.6385 0.767998C8.6625 0.767998 9.4305 1.10933 9.9425 1.792C10.4972 2.47466 10.9878 3.52 11.4145 4.928L18.4545 26.304L25.4305 5.248C26.0278 3.456 27.1158 2.21866 28.6945 1.536C29.3772 1.23733 30.2518 1.088 31.3185 1.088C32.4278 1.088 33.4518 1.45066 34.3905 2.176C35.3292 2.85866 35.9265 3.54133 36.1825 4.224L43.5425 26.432L50.5825 4.928C50.9238 3.94666 51.2012 3.22133 51.4145 2.752C51.6278 2.28266 52.0118 1.83466 52.5665 1.408C53.1638 0.938665 53.8892 0.703999 54.7425 0.703999C55.5958 0.703999 56.5985 0.917332 57.7505 1.344ZM87.576 0.511997C93.8907 0.511997 99.3733 2.79466 104.024 7.36C108.675 11.9253 111 17.6 111 24.384C111 31.1253 108.781 36.8853 104.344 41.664C99.9067 46.4 94.4453 48.768 87.96 48.768C81.4747 48.768 75.9493 46.4213 71.384 41.728C66.8613 37.0347 64.6 31.4453 64.6 24.96C64.6 21.4187 65.24 18.112 66.52 15.04C67.8 11.9253 69.5067 9.32267 71.64 7.232C73.7733 5.14133 76.2267 3.49866 79 2.304C81.7733 1.10933 84.632 0.511997 87.576 0.511997ZM75.928 24.64C75.928 28.4373 77.144 31.5307 79.576 33.92C82.0507 36.2667 84.8027 37.44 87.832 37.44C90.8613 37.44 93.592 36.288 96.024 33.984C98.456 31.68 99.672 28.5867 99.672 24.704C99.672 20.8213 98.4347 17.7067 95.96 15.36C93.528 13.0133 90.7973 11.84 87.768 11.84C84.7387 11.84 82.008 13.0347 79.576 15.424C77.144 17.7707 75.928 20.8427 75.928 24.64ZM137.201 0.511997C143.516 0.511997 148.998 2.79466 153.649 7.36C158.3 11.9253 160.625 17.6 160.625 24.384C160.625 31.1253 158.406 36.8853 153.969 41.664C149.532 46.4 144.07 48.768 137.585 48.768C131.1 48.768 125.574 46.4213 121.009 41.728C116.486 37.0347 114.225 31.4453 114.225 24.96C114.225 21.4187 114.865 18.112 116.145 15.04C117.425 11.9253 119.132 9.32267 121.265 7.232C123.398 5.14133 125.852 3.49866 128.625 2.304C131.398 1.10933 134.257 0.511997 137.201 0.511997ZM125.553 24.64C125.553 28.4373 126.769 31.5307 129.201 33.92C131.676 36.2667 134.428 37.44 137.457 37.44C140.486 37.44 143.217 36.288 145.649 33.984C148.081 31.68 149.297 28.5867 149.297 24.704C149.297 20.8213 148.06 17.7067 145.585 15.36C143.153 13.0133 140.422 11.84 137.393 11.84C134.364 11.84 131.633 13.0347 129.201 15.424C126.769 17.7707 125.553 20.8427 125.553 24.64ZM214.666 2.88C215.007 3.52 215.199 4.096 215.242 4.608C215.327 5.12 215.37 5.86667 215.37 6.848V42.368C215.37 45.312 214.559 47.04 212.938 47.552C212.127 47.808 211.103 47.936 209.866 47.936C208.629 47.936 207.647 47.8293 206.922 47.616C206.197 47.4027 205.642 47.1467 205.258 46.848C204.874 46.5493 204.575 46.1227 204.362 45.568C204.149 44.8427 204.042 43.7333 204.042 42.24V20.8C202.975 22.1227 201.418 24.2347 199.37 27.136C197.322 29.9947 196.021 31.7867 195.466 32.512C194.911 33.2373 194.527 33.7493 194.314 34.048C194.101 34.304 193.567 34.688 192.714 35.2C191.903 35.6693 191.007 35.904 190.026 35.904C189.087 35.904 188.213 35.6907 187.402 35.264C186.634 34.7947 186.079 34.3467 185.738 33.92L185.226 33.216C184.373 32.1493 182.687 29.888 180.17 26.432C177.653 22.9333 176.287 21.056 176.074 20.8V42.368C176.074 43.3493 176.031 44.096 175.946 44.608C175.903 45.0773 175.711 45.6107 175.37 46.208C174.73 47.36 173.066 47.936 170.378 47.936C167.775 47.936 166.154 47.36 165.514 46.208C165.173 45.6107 164.959 45.056 164.874 44.544C164.831 44.032 164.81 43.264 164.81 42.24V6.72C164.81 5.73866 164.831 5.01333 164.874 4.544C164.959 4.032 165.173 3.456 165.514 2.816C166.154 1.70666 167.818 1.152 170.506 1.152C171.658 1.152 172.639 1.30133 173.45 1.6C174.303 1.856 174.858 2.13333 175.114 2.432L175.498 2.816L190.026 21.888C197.279 12.288 202.122 5.952 204.554 2.88C205.279 1.728 206.986 1.152 209.674 1.152C212.405 1.152 214.069 1.728 214.666 2.88ZM251.154 2.816C251.58 2.13333 252.199 1.664 253.01 1.408C253.82 1.152 254.823 1.024 256.018 1.024C257.255 1.024 258.236 1.13066 258.962 1.344C259.687 1.55733 260.242 1.81333 260.626 2.112C261.01 2.41066 261.287 2.85866 261.458 3.456C261.714 4.18133 261.842 5.29066 261.842 6.784V26.112C261.842 31.744 260.092 36.864 256.594 41.472C254.887 43.648 252.69 45.4187 250.002 46.784C247.314 48.1067 244.327 48.768 241.042 48.768C237.799 48.768 234.834 48.0853 232.146 46.72C229.5 45.3547 227.346 43.5627 225.682 41.344C222.226 36.8213 220.498 31.7013 220.498 25.984V6.72C220.498 5.696 220.519 4.94933 220.562 4.48C220.647 3.968 220.86 3.392 221.202 2.752C221.543 2.112 222.119 1.664 222.93 1.408C223.74 1.152 224.828 1.024 226.194 1.024C227.559 1.024 228.647 1.152 229.458 1.408C230.268 1.664 230.823 2.112 231.122 2.752C231.634 3.73333 231.89 5.07733 231.89 6.784V25.984C231.89 28.5867 232.53 31.0613 233.81 33.408C234.45 34.6027 235.41 35.5627 236.69 36.288C237.97 37.0133 239.484 37.376 241.234 37.376C244.348 37.376 246.674 36.224 248.21 33.92C249.746 31.616 250.514 28.9493 250.514 25.92V6.336C250.514 4.672 250.727 3.49866 251.154 2.816ZM278.263 38.528H295.671C297.079 38.528 298.103 38.6987 298.743 39.04C299.383 39.3387 299.81 39.8293 300.023 40.512C300.236 41.1947 300.343 42.112 300.343 43.264C300.343 44.3733 300.236 45.2693 300.023 45.952C299.81 46.6347 299.447 47.104 298.935 47.36C298.124 47.7867 297.015 48 295.607 48H272.567C269.58 48 267.831 47.1893 267.319 45.568C267.063 44.8853 266.935 43.7973 266.935 42.304V6.72C266.935 5.73866 266.956 5.01333 266.999 4.544C267.084 4.032 267.298 3.456 267.639 2.816C268.236 1.664 269.9 1.088 272.631 1.088C275.618 1.088 277.388 1.87733 277.943 3.456C278.156 4.18133 278.263 5.29066 278.263 6.784V38.528ZM345.133 19.712H356.397C358.701 19.7973 360.109 20.3947 360.621 21.504C361.048 22.3147 361.261 23.5093 361.261 25.088V39.168C361.261 40.5333 360.664 41.8347 359.469 43.072C355.885 46.784 350.509 48.64 343.341 48.64C336.984 48.64 331.458 46.2507 326.765 41.472C322.072 36.6507 319.725 30.848 319.725 24.064C319.725 17.28 322.114 11.6267 326.893 7.104C331.672 2.53866 337.304 0.255997 343.789 0.255997C348.824 0.255997 353.581 1.92 358.061 5.248C359.213 6.10133 359.789 7.06133 359.789 8.128C359.789 9.152 359.298 10.3467 358.317 11.712C356.653 13.9733 355.138 15.104 353.773 15.104C352.962 15.104 351.661 14.528 349.869 13.376C348.077 12.1813 345.944 11.584 343.469 11.584C340.226 11.584 337.346 12.736 334.829 15.04C332.312 17.3013 331.053 20.288 331.053 24C331.053 27.6693 332.333 30.8053 334.893 33.408C337.453 35.968 340.354 37.248 343.597 37.248C345.944 37.248 348.056 36.864 349.933 36.096V29.12H344.877C343.554 29.12 342.616 28.9493 342.061 28.608C341.506 28.2667 341.144 27.776 340.973 27.136C340.802 26.4533 340.717 25.5573 340.717 24.448C340.717 23.296 340.802 22.3787 340.973 21.696C341.186 21.0133 341.549 20.544 342.061 20.288C342.829 19.904 343.853 19.712 345.133 19.712ZM388.389 0.511997C394.703 0.511997 400.186 2.79466 404.837 7.36C409.487 11.9253 411.813 17.6 411.813 24.384C411.813 31.1253 409.594 36.8853 405.157 41.664C400.719 46.4 395.258 48.768 388.773 48.768C382.287 48.768 376.762 46.4213 372.197 41.728C367.674 37.0347 365.413 31.4453 365.413 24.96C365.413 21.4187 366.053 18.112 367.333 15.04C368.613 11.9253 370.319 9.32267 372.453 7.232C374.586 5.14133 377.039 3.49866 379.812 2.304C382.586 1.10933 385.445 0.511997 388.389 0.511997ZM376.741 24.64C376.741 28.4373 377.957 31.5307 380.389 33.92C382.863 36.2667 385.615 37.44 388.645 37.44C391.674 37.44 394.405 36.288 396.837 33.984C399.269 31.68 400.485 28.5867 400.485 24.704C400.485 20.8213 399.247 17.7067 396.773 15.36C394.341 13.0133 391.61 11.84 388.581 11.84C385.551 11.84 382.821 13.0347 380.389 15.424C377.957 17.7707 376.741 20.8427 376.741 24.64ZM446.27 3.072C446.696 2.304 447.315 1.792 448.126 1.536C448.936 1.28 449.939 1.152 451.134 1.152C452.371 1.152 453.352 1.25866 454.078 1.472C454.846 1.68533 455.4 1.94133 455.742 2.24C456.126 2.53867 456.403 2.98667 456.574 3.584C456.83 4.26667 456.958 5.35467 456.958 6.848V42.368C456.958 43.392 456.915 44.1387 456.83 44.608C456.787 45.0773 456.595 45.632 456.254 46.272C455.656 47.424 453.992 48 451.262 48C449.598 48 448.446 47.872 447.806 47.616C447.166 47.36 446.632 46.9547 446.206 46.4C436.606 33.6 430.291 25.2373 427.262 21.312V42.368C427.262 43.392 427.219 44.1387 427.134 44.608C427.091 45.0773 426.899 45.632 426.558 46.272C425.96 47.424 424.296 48 421.566 48C418.92 48 417.299 47.424 416.702 46.272C416.36 45.632 416.147 45.056 416.062 44.544C416.019 44.032 415.998 43.2853 415.998 42.304V6.592C415.998 4.97066 416.19 3.79733 416.574 3.072C417 2.304 417.619 1.792 418.43 1.536C419.24 1.28 420.286 1.152 421.566 1.152C422.846 1.152 423.848 1.28 424.574 1.536C425.342 1.74933 425.875 2.00533 426.174 2.304C426.344 2.432 426.835 2.98667 427.646 3.968C436.648 16.2133 442.664 24.2987 445.694 28.224V6.592C445.694 4.97066 445.886 3.79733 446.27 3.072ZM492.716 2.816C493.143 2.13333 493.761 1.664 494.572 1.408C495.383 1.152 496.385 1.024 497.58 1.024C498.817 1.024 499.799 1.13066 500.524 1.344C501.249 1.55733 501.804 1.81333 502.188 2.112C502.572 2.41066 502.849 2.85866 503.02 3.456C503.276 4.18133 503.404 5.29066 503.404 6.784V26.112C503.404 31.744 501.655 36.864 498.156 41.472C496.449 43.648 494.252 45.4187 491.564 46.784C488.876 48.1067 485.889 48.768 482.604 48.768C479.361 48.768 476.396 48.0853 473.708 46.72C471.063 45.3547 468.908 43.5627 467.244 41.344C463.788 36.8213 462.06 31.7013 462.06 25.984V6.72C462.06 5.696 462.081 4.94933 462.124 4.48C462.209 3.968 462.423 3.392 462.764 2.752C463.105 2.112 463.681 1.664 464.492 1.408C465.303 1.152 466.391 1.024 467.756 1.024C469.121 1.024 470.209 1.152 471.02 1.408C471.831 1.664 472.385 2.112 472.684 2.752C473.196 3.73333 473.452 5.07733 473.452 6.784V25.984C473.452 28.5867 474.092 31.0613 475.372 33.408C476.012 34.6027 476.972 35.5627 478.252 36.288C479.532 37.0133 481.047 37.376 482.796 37.376C485.911 37.376 488.236 36.224 489.772 33.92C491.308 31.616 492.076 28.9493 492.076 25.92V6.336C492.076 4.672 492.289 3.49866 492.716 2.816Z" fill="#E16350"/>
</svg>
