<svg width="448" height="49" viewBox="0 0 448 49" fill="none" xmlns="http://www.w3.org/2000/svg">
<path d="M2.389 41.408C1.27967 40.0427 0.725 38.8267 0.725 37.76C0.725 36.6507 1.64233 35.2 3.477 33.408C4.54367 32.384 5.67433 31.872 6.869 31.872C8.06367 31.872 9.72767 32.9387 11.861 35.072C12.4583 35.7973 13.3117 36.5013 14.421 37.184C15.5303 37.824 16.5543 38.144 17.493 38.144C21.461 38.144 23.445 36.5227 23.445 33.28C23.445 32.2987 22.8903 31.488 21.781 30.848C20.7143 30.1653 19.3703 29.6747 17.749 29.376C16.1277 29.0773 14.3783 28.608 12.501 27.968C10.6237 27.2853 8.87433 26.496 7.253 25.6C5.63167 24.704 4.26633 23.296 3.157 21.376C2.09033 19.4133 1.557 17.0667 1.557 14.336C1.557 10.5813 2.94367 7.31733 5.717 4.544C8.533 1.728 12.3517 0.319996 17.173 0.319996C19.733 0.319996 22.0583 0.66133 24.149 1.344C26.2823 1.984 27.7543 2.64533 28.565 3.328L30.165 4.544C31.4877 5.78133 32.149 6.82666 32.149 7.68C32.149 8.53333 31.637 9.70667 30.613 11.2C29.1623 13.3333 27.669 14.4 26.133 14.4C25.237 14.4 24.1277 13.9733 22.805 13.12C22.677 13.0347 22.421 12.8213 22.037 12.48C21.6957 12.1387 21.3757 11.8613 21.077 11.648C20.181 11.0933 19.029 10.816 17.621 10.816C16.2557 10.816 15.1037 11.1573 14.165 11.84C13.269 12.48 12.821 13.3973 12.821 14.592C12.821 15.744 13.3543 16.6827 14.421 17.408C15.5303 18.1333 16.8957 18.624 18.517 18.88C20.1383 19.136 21.909 19.5413 23.829 20.096C25.749 20.608 27.5197 21.248 29.141 22.016C30.7623 22.784 32.1063 24.128 33.173 26.048C34.2823 27.9253 34.837 30.2507 34.837 33.024C34.837 35.7973 34.2823 38.2507 33.173 40.384C32.0637 42.4747 30.613 44.096 28.821 45.248C25.365 47.5093 21.6743 48.64 17.749 48.64C15.7437 48.64 13.845 48.4053 12.053 47.936C10.261 47.424 8.81033 46.8053 7.701 46.08C5.43967 44.7147 3.861 43.392 2.965 42.112L2.389 41.408ZM50.3255 36.672H70.0375C71.0188 36.672 71.7442 36.7147 72.2135 36.8C72.7255 36.8427 73.3015 37.0347 73.9415 37.376C75.0935 37.9733 75.6695 39.6373 75.6695 42.368C75.6695 45.3547 74.8802 47.104 73.3015 47.616C72.5762 47.872 71.4668 48 69.9735 48H44.6295C41.6428 48 39.8935 47.1893 39.3815 45.568C39.1255 44.8853 38.9975 43.7973 38.9975 42.304V6.72C38.9975 4.544 39.4028 3.072 40.2135 2.304C41.0242 1.49333 42.5602 1.088 44.8215 1.088H70.0375C71.0188 1.088 71.7442 1.13066 72.2135 1.216C72.7255 1.25867 73.3015 1.45066 73.9415 1.792C75.0935 2.38933 75.6695 4.05333 75.6695 6.784C75.6695 9.77067 74.8802 11.52 73.3015 12.032C72.5762 12.288 71.4668 12.416 69.9735 12.416H50.3255V18.88H62.9975C63.9788 18.88 64.7042 18.9227 65.1735 19.008C65.6855 19.0507 66.2615 19.2427 66.9015 19.584C68.0535 20.1813 68.6295 21.8453 68.6295 24.576C68.6295 27.5627 67.8188 29.312 66.1975 29.824C65.4722 30.08 64.3628 30.208 62.8695 30.208H50.3255V36.672ZM91.138 38.528H108.546C109.954 38.528 110.978 38.6987 111.618 39.04C112.258 39.3387 112.685 39.8293 112.898 40.512C113.111 41.1947 113.218 42.112 113.218 43.264C113.218 44.3733 113.111 45.2693 112.898 45.952C112.685 46.6347 112.322 47.104 111.81 47.36C110.999 47.7867 109.89 48 108.482 48H85.442C82.4553 48 80.706 47.1893 80.194 45.568C79.938 44.8853 79.81 43.7973 79.81 42.304V6.72C79.81 5.73866 79.8313 5.01333 79.874 4.544C79.9593 4.032 80.1727 3.456 80.514 2.816C81.1113 1.664 82.7753 1.088 85.506 1.088C88.4927 1.088 90.2633 1.87733 90.818 3.456C91.0313 4.18133 91.138 5.29066 91.138 6.784V38.528ZM128.701 36.672H148.413C149.394 36.672 150.119 36.7147 150.589 36.8C151.101 36.8427 151.677 37.0347 152.317 37.376C153.469 37.9733 154.045 39.6373 154.045 42.368C154.045 45.3547 153.255 47.104 151.677 47.616C150.951 47.872 149.842 48 148.349 48H123.005C120.018 48 118.269 47.1893 117.757 45.568C117.501 44.8853 117.373 43.7973 117.373 42.304V6.72C117.373 4.544 117.778 3.072 118.589 2.304C119.399 1.49333 120.935 1.088 123.197 1.088H148.413C149.394 1.088 150.119 1.13066 150.589 1.216C151.101 1.25867 151.677 1.45066 152.317 1.792C153.469 2.38933 154.045 4.05333 154.045 6.784C154.045 9.77067 153.255 11.52 151.677 12.032C150.951 12.288 149.842 12.416 148.349 12.416H128.701V18.88H141.373C142.354 18.88 143.079 18.9227 143.549 19.008C144.061 19.0507 144.637 19.2427 145.277 19.584C146.429 20.1813 147.005 21.8453 147.005 24.576C147.005 27.5627 146.194 29.312 144.573 29.824C143.847 30.08 142.738 30.208 141.245 30.208H128.701V36.672ZM187.497 35.712L188.649 34.88C190.1 34.0267 191.124 33.6 191.721 33.6C193.044 33.6 194.473 34.7947 196.009 37.184C196.948 38.6773 197.417 39.872 197.417 40.768C197.417 41.664 197.118 42.4107 196.521 43.008C195.966 43.6053 195.305 44.1387 194.537 44.608C193.769 45.0773 193.022 45.5253 192.297 45.952C191.614 46.3787 190.185 46.9333 188.009 47.616C185.833 48.2987 183.721 48.64 181.673 48.64C179.668 48.64 177.62 48.384 175.529 47.872C173.481 47.3173 171.348 46.4213 169.129 45.184C166.953 43.904 164.99 42.368 163.241 40.576C161.492 38.7413 160.041 36.416 158.889 33.6C157.78 30.7413 157.225 27.648 157.225 24.32C157.225 20.992 157.78 17.984 158.889 15.296C159.998 12.5653 161.406 10.3253 163.113 8.576C164.862 6.784 166.846 5.29066 169.065 4.096C173.246 1.792 177.449 0.639999 181.673 0.639999C183.678 0.639999 185.705 0.959999 187.753 1.6C189.844 2.19733 191.422 2.816 192.489 3.456L194.025 4.352C194.793 4.82133 195.39 5.20533 195.817 5.504C196.926 6.4 197.481 7.424 197.481 8.576C197.481 9.68533 197.033 10.8587 196.137 12.096C194.473 14.4 192.98 15.552 191.657 15.552C190.889 15.552 189.801 15.0827 188.393 14.144C186.601 12.6933 184.212 11.968 181.225 11.968C178.452 11.968 175.721 12.928 173.033 14.848C171.753 15.7867 170.686 17.1093 169.833 18.816C168.98 20.5227 168.553 22.464 168.553 24.64C168.553 26.7733 168.98 28.6933 169.833 30.4C170.686 32.1067 171.774 33.4507 173.097 34.432C175.7 36.3093 178.409 37.248 181.225 37.248C182.548 37.248 183.785 37.0773 184.937 36.736C186.132 36.3947 186.985 36.0533 187.497 35.712ZM204.695 1.024H240.279C241.644 1.024 242.647 1.19467 243.287 1.536C243.927 1.83466 244.353 2.32533 244.567 3.008C244.78 3.69066 244.887 4.58666 244.887 5.696C244.887 6.80533 244.78 7.70133 244.567 8.384C244.353 9.024 243.991 9.472 243.479 9.728C242.711 10.112 241.623 10.304 240.215 10.304H227.991V42.496C227.991 43.4773 227.948 44.2027 227.863 44.672C227.82 45.1413 227.628 45.696 227.287 46.336C226.988 46.9333 226.433 47.36 225.623 47.616C224.812 47.872 223.745 48 222.423 48C221.1 48 220.033 47.872 219.223 47.616C218.455 47.36 217.9 46.9333 217.559 46.336C217.26 45.696 217.068 45.1413 216.983 44.672C216.94 44.16 216.919 43.4133 216.919 42.432V10.304H204.631C203.265 10.304 202.263 10.1547 201.623 9.856C200.983 9.51466 200.556 9.00267 200.343 8.32C200.129 7.63733 200.023 6.74133 200.023 5.632C200.023 4.52266 200.129 3.648 200.343 3.008C200.556 2.32533 200.919 1.856 201.431 1.6C202.199 1.216 203.287 1.024 204.695 1.024ZM289.071 19.712H300.335C302.639 19.7973 304.047 20.3947 304.559 21.504C304.985 22.3147 305.199 23.5093 305.199 25.088V39.168C305.199 40.5333 304.601 41.8347 303.407 43.072C299.823 46.784 294.447 48.64 287.279 48.64C280.921 48.64 275.396 46.2507 270.703 41.472C266.009 36.6507 263.663 30.848 263.663 24.064C263.663 17.28 266.052 11.6267 270.831 7.104C275.609 2.53866 281.241 0.255997 287.727 0.255997C292.761 0.255997 297.519 1.92 301.999 5.248C303.151 6.10133 303.727 7.06133 303.727 8.128C303.727 9.152 303.236 10.3467 302.255 11.712C300.591 13.9733 299.076 15.104 297.711 15.104C296.9 15.104 295.599 14.528 293.807 13.376C292.015 12.1813 289.881 11.584 287.407 11.584C284.164 11.584 281.284 12.736 278.767 15.04C276.249 17.3013 274.991 20.288 274.991 24C274.991 27.6693 276.271 30.8053 278.831 33.408C281.391 35.968 284.292 37.248 287.535 37.248C289.881 37.248 291.993 36.864 293.871 36.096V29.12H288.815C287.492 29.12 286.553 28.9493 285.999 28.608C285.444 28.2667 285.081 27.776 284.911 27.136C284.74 26.4533 284.655 25.5573 284.655 24.448C284.655 23.296 284.74 22.3787 284.911 21.696C285.124 21.0133 285.487 20.544 285.999 20.288C286.767 19.904 287.791 19.712 289.071 19.712ZM332.326 0.511997C338.641 0.511997 344.123 2.79466 348.774 7.36C353.425 11.9253 355.75 17.6 355.75 24.384C355.75 31.1253 353.531 36.8853 349.094 41.664C344.657 46.4 339.195 48.768 332.71 48.768C326.225 48.768 320.699 46.4213 316.134 41.728C311.611 37.0347 309.35 31.4453 309.35 24.96C309.35 21.4187 309.99 18.112 311.27 15.04C312.55 11.9253 314.257 9.32267 316.39 7.232C318.523 5.14133 320.977 3.49866 323.75 2.304C326.523 1.10933 329.382 0.511997 332.326 0.511997ZM320.678 24.64C320.678 28.4373 321.894 31.5307 324.326 33.92C326.801 36.2667 329.553 37.44 332.582 37.44C335.611 37.44 338.342 36.288 340.774 33.984C343.206 31.68 344.422 28.5867 344.422 24.704C344.422 20.8213 343.185 17.7067 340.71 15.36C338.278 13.0133 335.547 11.84 332.518 11.84C329.489 11.84 326.758 13.0347 324.326 15.424C321.894 17.7707 320.678 20.8427 320.678 24.64ZM390.207 3.072C390.634 2.304 391.252 1.792 392.063 1.536C392.874 1.28 393.876 1.152 395.071 1.152C396.308 1.152 397.29 1.25866 398.015 1.472C398.783 1.68533 399.338 1.94133 399.679 2.24C400.063 2.53867 400.34 2.98667 400.511 3.584C400.767 4.26667 400.895 5.35467 400.895 6.848V42.368C400.895 43.392 400.852 44.1387 400.767 44.608C400.724 45.0773 400.532 45.632 400.191 46.272C399.594 47.424 397.93 48 395.199 48C393.535 48 392.383 47.872 391.743 47.616C391.103 47.36 390.57 46.9547 390.143 46.4C380.543 33.6 374.228 25.2373 371.199 21.312V42.368C371.199 43.392 371.156 44.1387 371.071 44.608C371.028 45.0773 370.836 45.632 370.495 46.272C369.898 47.424 368.234 48 365.503 48C362.858 48 361.236 47.424 360.639 46.272C360.298 45.632 360.084 45.056 359.999 44.544C359.956 44.032 359.935 43.2853 359.935 42.304V6.592C359.935 4.97066 360.127 3.79733 360.511 3.072C360.938 2.304 361.556 1.792 362.367 1.536C363.178 1.28 364.223 1.152 365.503 1.152C366.783 1.152 367.786 1.28 368.511 1.536C369.279 1.74933 369.812 2.00533 370.111 2.304C370.282 2.432 370.772 2.98667 371.583 3.968C380.586 16.2133 386.602 24.2987 389.631 28.224V6.592C389.631 4.97066 389.823 3.79733 390.207 3.072ZM436.654 2.816C437.08 2.13333 437.699 1.664 438.51 1.408C439.32 1.152 440.323 1.024 441.518 1.024C442.755 1.024 443.736 1.13066 444.462 1.344C445.187 1.55733 445.742 1.81333 446.126 2.112C446.51 2.41066 446.787 2.85866 446.958 3.456C447.214 4.18133 447.342 5.29066 447.342 6.784V26.112C447.342 31.744 445.592 36.864 442.094 41.472C440.387 43.648 438.19 45.4187 435.502 46.784C432.814 48.1067 429.827 48.768 426.542 48.768C423.299 48.768 420.334 48.0853 417.646 46.72C415 45.3547 412.846 43.5627 411.182 41.344C407.726 36.8213 405.998 31.7013 405.998 25.984V6.72C405.998 5.696 406.019 4.94933 406.062 4.48C406.147 3.968 406.36 3.392 406.702 2.752C407.043 2.112 407.619 1.664 408.43 1.408C409.24 1.152 410.328 1.024 411.694 1.024C413.059 1.024 414.147 1.152 414.958 1.408C415.768 1.664 416.323 2.112 416.622 2.752C417.134 3.73333 417.39 5.07733 417.39 6.784V25.984C417.39 28.5867 418.03 31.0613 419.31 33.408C419.95 34.6027 420.91 35.5627 422.19 36.288C423.47 37.0133 424.984 37.376 426.734 37.376C429.848 37.376 432.174 36.224 433.71 33.92C435.246 31.616 436.014 28.9493 436.014 25.92V6.336C436.014 4.672 436.227 3.49866 436.654 2.816Z" fill="#E16350"/>
</svg>
