<svg width="442" height="49" viewBox="0 0 442 49" fill="none" xmlns="http://www.w3.org/2000/svg">
<path d="M29.802 2.816C30.1433 2.176 30.7193 1.728 31.53 1.472C32.3407 1.216 33.3647 1.088 34.602 1.088C35.8393 1.088 36.8207 1.19466 37.546 1.408C38.2713 1.62133 38.826 1.87733 39.21 2.176C39.594 2.47466 39.8927 2.90133 40.106 3.456C40.3193 4.18133 40.426 5.29066 40.426 6.784V42.304C40.426 43.2853 40.3833 44.032 40.298 44.544C40.2553 45.0133 40.0633 45.568 39.722 46.208C39.1247 47.36 37.4607 47.936 34.73 47.936C31.7433 47.936 29.994 47.1467 29.482 45.568C29.226 44.8427 29.098 43.7333 29.098 42.24V29.248H12.138V42.304C12.138 43.2853 12.0953 44.032 12.01 44.544C11.9673 45.0133 11.7753 45.568 11.434 46.208C10.8367 47.36 9.17267 47.936 6.442 47.936C3.45533 47.936 1.706 47.1467 1.194 45.568C0.938 44.8427 0.81 43.7333 0.81 42.24V6.72C0.81 5.73866 0.831333 5.01333 0.874 4.544C0.959333 4.032 1.17267 3.456 1.514 2.816C2.11133 1.664 3.77533 1.088 6.506 1.088C9.49267 1.088 11.2633 1.87733 11.818 3.456C12.0313 4.18133 12.138 5.29066 12.138 6.784V19.84H29.098V6.72C29.098 5.73866 29.1193 5.01333 29.162 4.544C29.2473 4.032 29.4607 3.456 29.802 2.816ZM67.576 0.511997C73.8907 0.511997 79.3733 2.79466 84.024 7.36C88.6747 11.9253 91 17.6 91 24.384C91 31.1253 88.7813 36.8853 84.344 41.664C79.9067 46.4 74.4453 48.768 67.96 48.768C61.4747 48.768 55.9493 46.4213 51.384 41.728C46.8613 37.0347 44.6 31.4453 44.6 24.96C44.6 21.4187 45.24 18.112 46.52 15.04C47.8 11.9253 49.5067 9.32267 51.64 7.232C53.7733 5.14133 56.2267 3.49866 59 2.304C61.7733 1.10933 64.632 0.511997 67.576 0.511997ZM55.928 24.64C55.928 28.4373 57.144 31.5307 59.576 33.92C62.0507 36.2667 64.8027 37.44 67.832 37.44C70.8613 37.44 73.592 36.288 76.024 33.984C78.456 31.68 79.672 28.5867 79.672 24.704C79.672 20.8213 78.4347 17.7067 75.96 15.36C73.528 13.0133 70.7973 11.84 67.768 11.84C64.7387 11.84 62.008 13.0347 59.576 15.424C57.144 17.7707 55.928 20.8427 55.928 24.64ZM151.313 1.344C154.172 2.368 155.601 3.73333 155.601 5.44C155.601 5.99467 155.345 7.04 154.833 8.576L142.545 44.096C142.46 44.3947 142.31 44.7573 142.097 45.184C141.884 45.6107 141.308 46.1867 140.369 46.912C139.473 47.5947 138.385 47.936 137.105 47.936C135.868 47.936 134.78 47.5947 133.841 46.912C132.945 46.1867 132.348 45.4827 132.049 44.8L124.561 22.72C119.825 36.7147 117.414 43.84 117.329 44.096C117.244 44.352 117.052 44.7147 116.753 45.184C116.454 45.6533 116.113 46.08 115.729 46.464C114.748 47.4453 113.574 47.936 112.209 47.936C110.844 47.936 109.713 47.616 108.817 46.976C107.964 46.336 107.388 45.696 107.089 45.056L106.641 44.096L94.289 8.576C93.8197 7.168 93.585 6.12266 93.585 5.44C93.585 3.73333 95.0143 2.38933 97.873 1.408C99.1103 0.981331 100.22 0.767998 101.201 0.767998C102.225 0.767998 102.993 1.10933 103.505 1.792C104.06 2.47466 104.55 3.52 104.977 4.928L112.017 26.304L118.993 5.248C119.59 3.456 120.678 2.21866 122.257 1.536C122.94 1.23733 123.814 1.088 124.881 1.088C125.99 1.088 127.014 1.45066 127.953 2.176C128.892 2.85866 129.489 3.54133 129.745 4.224L137.105 26.432L144.145 4.928C144.486 3.94666 144.764 3.22133 144.977 2.752C145.19 2.28266 145.574 1.83466 146.129 1.408C146.726 0.938665 147.452 0.703999 148.305 0.703999C149.158 0.703999 150.161 0.917332 151.313 1.344ZM178.382 1.024H213.966C215.331 1.024 216.334 1.19467 216.974 1.536C217.614 1.83466 218.041 2.32533 218.254 3.008C218.467 3.69066 218.574 4.58666 218.574 5.696C218.574 6.80533 218.467 7.70133 218.254 8.384C218.041 9.024 217.678 9.472 217.166 9.728C216.398 10.112 215.31 10.304 213.902 10.304H201.678V42.496C201.678 43.4773 201.635 44.2027 201.55 44.672C201.507 45.1413 201.315 45.696 200.974 46.336C200.675 46.9333 200.121 47.36 199.31 47.616C198.499 47.872 197.433 48 196.11 48C194.787 48 193.721 47.872 192.91 47.616C192.142 47.36 191.587 46.9333 191.246 46.336C190.947 45.696 190.755 45.1413 190.67 44.672C190.627 44.16 190.606 43.4133 190.606 42.432V10.304H178.318C176.953 10.304 175.95 10.1547 175.31 9.856C174.67 9.51466 174.243 9.00267 174.03 8.32C173.817 7.63733 173.71 6.74133 173.71 5.632C173.71 4.52266 173.817 3.648 174.03 3.008C174.243 2.32533 174.606 1.856 175.118 1.6C175.886 1.216 176.974 1.024 178.382 1.024ZM240.326 0.511997C246.641 0.511997 252.123 2.79466 256.774 7.36C261.425 11.9253 263.75 17.6 263.75 24.384C263.75 31.1253 261.531 36.8853 257.094 41.664C252.657 46.4 247.195 48.768 240.71 48.768C234.225 48.768 228.699 46.4213 224.134 41.728C219.611 37.0347 217.35 31.4453 217.35 24.96C217.35 21.4187 217.99 18.112 219.27 15.04C220.55 11.9253 222.257 9.32267 224.39 7.232C226.523 5.14133 228.977 3.49866 231.75 2.304C234.523 1.10933 237.382 0.511997 240.326 0.511997ZM228.678 24.64C228.678 28.4373 229.894 31.5307 232.326 33.92C234.801 36.2667 237.553 37.44 240.582 37.44C243.611 37.44 246.342 36.288 248.774 33.984C251.206 31.68 252.422 28.5867 252.422 24.704C252.422 20.8213 251.185 17.7067 248.71 15.36C246.278 13.0133 243.547 11.84 240.518 11.84C237.489 11.84 234.758 13.0347 232.326 15.424C229.894 17.7707 228.678 20.8427 228.678 24.64ZM318.747 10.56C319.856 12.8213 320.411 15.3387 320.411 18.112C320.411 20.8853 319.856 23.4027 318.747 25.664C317.637 27.8827 316.208 29.6533 314.458 30.976C310.917 33.7067 307.248 35.072 303.451 35.072H295.451V42.304C295.451 43.2853 295.408 44.032 295.323 44.544C295.28 45.0133 295.088 45.568 294.747 46.208C294.149 47.36 292.485 47.936 289.755 47.936C286.768 47.936 285.019 47.1467 284.507 45.568C284.251 44.8427 284.123 43.7333 284.123 42.24V6.72C284.123 5.73866 284.144 5.01333 284.187 4.544C284.272 4.032 284.485 3.456 284.827 2.816C285.424 1.664 287.088 1.088 289.819 1.088H303.515C307.269 1.088 310.917 2.45333 314.458 5.184C316.208 6.50667 317.637 8.29867 318.747 10.56ZM303.515 23.744C304.795 23.744 306.053 23.2747 307.291 22.336C308.528 21.3973 309.147 19.9893 309.147 18.112C309.147 16.2347 308.528 14.8267 307.291 13.888C306.053 12.9067 304.773 12.416 303.451 12.416H295.451V23.744H303.515ZM335.888 38.528H353.296C354.704 38.528 355.728 38.6987 356.368 39.04C357.008 39.3387 357.435 39.8293 357.648 40.512C357.861 41.1947 357.968 42.112 357.968 43.264C357.968 44.3733 357.861 45.2693 357.648 45.952C357.435 46.6347 357.072 47.104 356.56 47.36C355.749 47.7867 354.64 48 353.232 48H330.192C327.205 48 325.456 47.1893 324.944 45.568C324.688 44.8853 324.56 43.7973 324.56 42.304V6.72C324.56 5.73866 324.581 5.01333 324.624 4.544C324.709 4.032 324.923 3.456 325.264 2.816C325.861 1.664 327.525 1.088 330.256 1.088C333.243 1.088 335.013 1.87733 335.568 3.456C335.781 4.18133 335.888 5.29066 335.888 6.784V38.528ZM389.195 4.416L406.475 40.128C407.2 41.5787 407.563 42.6667 407.563 43.392C407.563 44.928 406.325 46.3147 403.851 47.552C402.4 48.2773 401.248 48.64 400.395 48.64C399.584 48.64 398.901 48.448 398.347 48.064C397.835 47.68 397.451 47.2747 397.194 46.848C396.981 46.4213 396.661 45.7813 396.235 44.928L392.907 38.016H375.179L371.851 44.928C371.424 45.7813 371.083 46.4 370.827 46.784C370.613 47.168 370.229 47.5733 369.675 48C369.163 48.384 368.48 48.576 367.627 48.576C366.816 48.576 365.685 48.2133 364.235 47.488C361.76 46.2933 360.523 44.928 360.523 43.392C360.523 42.6667 360.885 41.5787 361.611 40.128L378.891 4.352C379.36 3.37066 380.064 2.58133 381.003 1.984C381.984 1.38666 383.008 1.088 384.075 1.088C386.379 1.088 388.085 2.19733 389.195 4.416ZM384.011 19.776L379.787 28.544H388.299L384.011 19.776ZM438.683 1.984C440.774 3.43466 441.819 4.84266 441.819 6.208C441.819 7.01867 441.328 8.14933 440.347 9.6L426.523 30.272V42.496C426.523 43.4773 426.48 44.224 426.395 44.736C426.352 45.2053 426.16 45.76 425.819 46.4C425.478 47.04 424.902 47.488 424.091 47.744C423.28 48 422.192 48.128 420.827 48.128C419.462 48.128 418.374 48 417.563 47.744C416.752 47.488 416.176 47.04 415.835 46.4C415.494 45.7173 415.28 45.1413 415.195 44.672C415.152 44.16 415.131 43.392 415.131 42.368V30.272L401.307 9.6C400.326 8.14933 399.835 7.01867 399.835 6.208C399.835 4.84266 400.774 3.54133 402.651 2.304C404.528 1.024 405.872 0.383999 406.683 0.383999C407.494 0.383999 408.134 0.554665 408.603 0.895996C409.328 1.36533 410.096 2.24 410.907 3.52L420.827 19.392L430.747 3.52C431.558 2.24 432.262 1.408 432.859 1.024C433.456 0.597332 434.139 0.383999 434.907 0.383999C435.718 0.383999 436.976 0.917332 438.683 1.984Z" fill="#E16350"/>
</svg>
