<svg width="588" height="588" viewBox="0 0 588 588" fill="none" xmlns="http://www.w3.org/2000/svg">
<circle cx="294" cy="548" r="40" fill="#E16350"/>
<circle cx="40" cy="292" r="40" fill="#E16350"/>
<path d="M294 292H292V294L292 545.992C242.857 545.602 194.883 530.85 153.996 503.53C112.555 475.84 80.2556 436.483 61.1824 390.436C42.1091 344.389 37.1186 293.72 46.8421 244.837C56.5656 195.954 80.5662 151.052 115.809 115.809C151.052 80.5663 195.954 56.5656 244.837 46.8421C293.72 37.1186 344.389 42.1091 390.436 61.1824C436.483 80.2556 475.84 112.555 503.53 153.996C530.85 194.883 545.602 242.857 545.992 292H294Z" stroke="#E16350" stroke-width="4"/>
<line x1="294" y1="292" x2="40" y2="292" stroke="#E16350" stroke-width="4"/>
<line x1="292" y1="294" x2="292" y2="40" stroke="#E16350" stroke-width="4"/>
<circle cx="294" cy="40" r="40" fill="#4F599F"/>
<circle cx="548" cy="292" r="40" fill="#4F599F"/>
</svg>
