<svg width="426" height="49" viewBox="0 0 426 49" fill="none" xmlns="http://www.w3.org/2000/svg">
<path d="M29.7708 2.816C30.1121 2.176 30.6881 1.728 31.4988 1.472C32.3094 1.216 33.3334 1.088 34.5708 1.088C35.8081 1.088 36.7894 1.19466 37.5148 1.408C38.2401 1.62133 38.7948 1.87733 39.1788 2.176C39.5628 2.47466 39.8614 2.90133 40.0748 3.456C40.2881 4.18133 40.3948 5.29066 40.3948 6.784V42.304C40.3948 43.2853 40.3521 44.032 40.2668 44.544C40.2241 45.0133 40.0321 45.568 39.6908 46.208C39.0934 47.36 37.4294 47.936 34.6988 47.936C31.7121 47.936 29.9628 47.1467 29.4508 45.568C29.1948 44.8427 29.0668 43.7333 29.0668 42.24V29.248H12.1068V42.304C12.1068 43.2853 12.0641 44.032 11.9788 44.544C11.9361 45.0133 11.7441 45.568 11.4028 46.208C10.8054 47.36 9.14142 47.936 6.41075 47.936C3.42408 47.936 1.67475 47.1467 1.16275 45.568C0.90675 44.8427 0.77875 43.7333 0.77875 42.24V6.72C0.77875 5.73866 0.800083 5.01333 0.84275 4.544C0.928083 4.032 1.14142 3.456 1.48275 2.816C2.08008 1.664 3.74408 1.088 6.47475 1.088C9.46142 1.088 11.2321 1.87733 11.7868 3.456C12.0001 4.18133 12.1068 5.29066 12.1068 6.784V19.84H29.0668V6.72C29.0668 5.73866 29.0881 5.01333 29.1308 4.544C29.2161 4.032 29.4294 3.456 29.7708 2.816ZM67.5448 0.511997C73.8594 0.511997 79.3421 2.79466 83.9928 7.36C88.6434 11.9253 90.9688 17.6 90.9688 24.384C90.9688 31.1253 88.7501 36.8853 84.3128 41.664C79.8754 46.4 74.4141 48.768 67.9288 48.768C61.4434 48.768 55.9181 46.4213 51.3528 41.728C46.8301 37.0347 44.5688 31.4453 44.5688 24.96C44.5688 21.4187 45.2088 18.112 46.4888 15.04C47.7688 11.9253 49.4754 9.32267 51.6088 7.232C53.7421 5.14133 56.1954 3.49866 58.9688 2.304C61.7421 1.10933 64.6008 0.511997 67.5448 0.511997ZM55.8968 24.64C55.8968 28.4373 57.1128 31.5307 59.5448 33.92C62.0194 36.2667 64.7714 37.44 67.8008 37.44C70.8301 37.44 73.5608 36.288 75.9928 33.984C78.4248 31.68 79.6408 28.5867 79.6408 24.704C79.6408 20.8213 78.4034 17.7067 75.9288 15.36C73.4968 13.0133 70.7661 11.84 67.7368 11.84C64.7074 11.84 61.9768 13.0347 59.5448 15.424C57.1128 17.7707 55.8968 20.8427 55.8968 24.64ZM128.562 22.848C131.079 25.8347 132.338 29.184 132.338 32.896C132.252 37.1627 130.78 40.7467 127.922 43.648C125.106 46.5067 121.671 47.936 117.618 47.936H100.786C97.7991 47.936 96.0498 47.1253 95.5378 45.504C95.2818 44.7787 95.1538 43.6693 95.1538 42.176V6.656C95.1538 5.632 95.1751 4.88533 95.2178 4.416C95.3031 3.94666 95.5164 3.392 95.8578 2.752C96.4551 1.6 98.1191 1.024 100.85 1.024H116.978C120.903 1.024 124.188 2.38933 126.834 5.12C129.607 7.89333 130.994 11.2213 130.994 15.104C130.994 17.92 130.183 20.5013 128.562 22.848ZM121.01 32.256C121.01 31.232 120.882 30.4213 120.626 29.824C120.412 29.2267 120.028 28.8 119.474 28.544C118.62 28.2027 117.426 28.032 115.89 28.032C114.354 28.032 113.202 27.7333 112.434 27.136C111.666 26.5387 111.282 25.3227 111.282 23.488C111.282 21.6107 111.666 20.3733 112.434 19.776C113.244 19.1787 114.567 18.88 116.402 18.88C118.108 18.88 119.132 18.432 119.474 17.536C119.602 17.0667 119.666 16.2987 119.666 15.232C119.666 14.1653 119.303 13.4187 118.578 12.992C117.895 12.5653 116.85 12.352 115.442 12.352H106.482V36.608H116.978C119.666 36.608 121.01 35.1573 121.01 32.256ZM163.601 4.416L180.881 40.128C181.606 41.5787 181.969 42.6667 181.969 43.392C181.969 44.928 180.731 46.3147 178.257 47.552C176.806 48.2773 175.654 48.64 174.801 48.64C173.99 48.64 173.307 48.448 172.753 48.064C172.241 47.68 171.857 47.2747 171.601 46.848C171.387 46.4213 171.067 45.7813 170.641 44.928L167.313 38.016H149.585L146.257 44.928C145.83 45.7813 145.489 46.4 145.233 46.784C145.019 47.168 144.635 47.5733 144.081 48C143.569 48.384 142.886 48.576 142.033 48.576C141.222 48.576 140.091 48.2133 138.641 47.488C136.166 46.2933 134.929 44.928 134.929 43.392C134.929 42.6667 135.291 41.5787 136.017 40.128L153.297 4.352C153.766 3.37066 154.47 2.58133 155.409 1.984C156.39 1.38666 157.414 1.088 158.481 1.088C160.785 1.088 162.491 2.19733 163.601 4.416ZM158.417 19.776L154.193 28.544H162.705L158.417 19.776ZM205.562 24.448C212.09 30.72 216.72 35.4347 219.45 38.592C220.858 40.1707 221.562 41.5147 221.562 42.624C221.562 43.6907 220.709 44.9707 219.002 46.464C217.296 47.9147 215.888 48.64 214.778 48.64C213.712 48.64 212.41 47.744 210.874 45.952L196.794 29.888V42.368C196.794 43.392 196.752 44.1387 196.666 44.608C196.624 45.0773 196.432 45.632 196.09 46.272C195.493 47.424 193.829 48 191.098 48C188.112 48 186.362 47.1893 185.85 45.568C185.594 44.8853 185.466 43.7973 185.466 42.304V6.72C185.466 5.73866 185.488 5.01333 185.53 4.544C185.616 4.032 185.829 3.456 186.17 2.816C186.768 1.664 188.432 1.088 191.162 1.088C194.149 1.088 195.92 1.87733 196.474 3.456C196.688 4.18133 196.794 5.29066 196.794 6.784V19.008C202.597 12.48 207.29 7.12533 210.874 2.944C212.368 1.19466 213.669 0.319996 214.778 0.319996C215.888 0.319996 217.296 1.06666 219.002 2.56C220.709 4.01066 221.562 5.29066 221.562 6.4C221.562 7.46667 220.922 8.74667 219.642 10.24C217.168 13.0987 213.328 17.024 208.122 22.016L205.562 24.448ZM266.977 19.712H278.241C280.545 19.7973 281.953 20.3947 282.465 21.504C282.891 22.3147 283.105 23.5093 283.105 25.088V39.168C283.105 40.5333 282.507 41.8347 281.313 43.072C277.729 46.784 272.353 48.64 265.185 48.64C258.827 48.64 253.302 46.2507 248.609 41.472C243.915 36.6507 241.569 30.848 241.569 24.064C241.569 17.28 243.958 11.6267 248.737 7.104C253.515 2.53866 259.147 0.255997 265.633 0.255997C270.667 0.255997 275.425 1.92 279.905 5.248C281.057 6.10133 281.633 7.06133 281.633 8.128C281.633 9.152 281.142 10.3467 280.161 11.712C278.497 13.9733 276.982 15.104 275.617 15.104C274.806 15.104 273.505 14.528 271.713 13.376C269.921 12.1813 267.787 11.584 265.313 11.584C262.07 11.584 259.19 12.736 256.673 15.04C254.155 17.3013 252.897 20.288 252.897 24C252.897 27.6693 254.177 30.8053 256.737 33.408C259.297 35.968 262.198 37.248 265.441 37.248C267.787 37.248 269.899 36.864 271.777 36.096V29.12H266.721C265.398 29.12 264.459 28.9493 263.905 28.608C263.35 28.2667 262.987 27.776 262.817 27.136C262.646 26.4533 262.561 25.5573 262.561 24.448C262.561 23.296 262.646 22.3787 262.817 21.696C263.03 21.0133 263.393 20.544 263.905 20.288C264.673 19.904 265.697 19.712 266.977 19.712ZM310.232 0.511997C316.547 0.511997 322.03 2.79466 326.68 7.36C331.331 11.9253 333.656 17.6 333.656 24.384C333.656 31.1253 331.438 36.8853 327 41.664C322.563 46.4 317.102 48.768 310.616 48.768C304.131 48.768 298.606 46.4213 294.04 41.728C289.518 37.0347 287.256 31.4453 287.256 24.96C287.256 21.4187 287.896 18.112 289.176 15.04C290.456 11.9253 292.163 9.32267 294.296 7.232C296.43 5.14133 298.883 3.49866 301.656 2.304C304.43 1.10933 307.288 0.511997 310.232 0.511997ZM298.584 24.64C298.584 28.4373 299.8 31.5307 302.232 33.92C304.707 36.2667 307.459 37.44 310.488 37.44C313.518 37.44 316.248 36.288 318.68 33.984C321.112 31.68 322.328 28.5867 322.328 24.704C322.328 20.8213 321.091 17.7067 318.616 15.36C316.184 13.0133 313.454 11.84 310.424 11.84C307.395 11.84 304.664 13.0347 302.232 15.424C299.8 17.7707 298.584 20.8427 298.584 24.64ZM368.113 3.072C368.54 2.304 369.159 1.792 369.969 1.536C370.78 1.28 371.783 1.152 372.977 1.152C374.215 1.152 375.196 1.25866 375.921 1.472C376.689 1.68533 377.244 1.94133 377.585 2.24C377.969 2.53867 378.247 2.98667 378.417 3.584C378.673 4.26667 378.801 5.35467 378.801 6.848V42.368C378.801 43.392 378.759 44.1387 378.673 44.608C378.631 45.0773 378.439 45.632 378.097 46.272C377.5 47.424 375.836 48 373.105 48C371.441 48 370.289 47.872 369.649 47.616C369.009 47.36 368.476 46.9547 368.049 46.4C358.449 33.6 352.135 25.2373 349.105 21.312V42.368C349.105 43.392 349.063 44.1387 348.977 44.608C348.935 45.0773 348.743 45.632 348.401 46.272C347.804 47.424 346.14 48 343.409 48C340.764 48 339.143 47.424 338.545 46.272C338.204 45.632 337.991 45.056 337.905 44.544C337.863 44.032 337.841 43.2853 337.841 42.304V6.592C337.841 4.97066 338.033 3.79733 338.417 3.072C338.844 2.304 339.463 1.792 340.273 1.536C341.084 1.28 342.129 1.152 343.409 1.152C344.689 1.152 345.692 1.28 346.417 1.536C347.185 1.74933 347.719 2.00533 348.017 2.304C348.188 2.432 348.679 2.98667 349.489 3.968C358.492 16.2133 364.508 24.2987 367.537 28.224V6.592C367.537 4.97066 367.729 3.79733 368.113 3.072ZM414.56 2.816C414.986 2.13333 415.605 1.664 416.416 1.408C417.226 1.152 418.229 1.024 419.424 1.024C420.661 1.024 421.642 1.13066 422.368 1.344C423.093 1.55733 423.648 1.81333 424.032 2.112C424.416 2.41066 424.693 2.85866 424.864 3.456C425.12 4.18133 425.248 5.29066 425.248 6.784V26.112C425.248 31.744 423.498 36.864 420 41.472C418.293 43.648 416.096 45.4187 413.408 46.784C410.72 48.1067 407.733 48.768 404.448 48.768C401.205 48.768 398.24 48.0853 395.552 46.72C392.906 45.3547 390.752 43.5627 389.088 41.344C385.632 36.8213 383.904 31.7013 383.904 25.984V6.72C383.904 5.696 383.925 4.94933 383.968 4.48C384.053 3.968 384.266 3.392 384.608 2.752C384.949 2.112 385.525 1.664 386.336 1.408C387.146 1.152 388.234 1.024 389.6 1.024C390.965 1.024 392.053 1.152 392.864 1.408C393.674 1.664 394.229 2.112 394.528 2.752C395.04 3.73333 395.296 5.07733 395.296 6.784V25.984C395.296 28.5867 395.936 31.0613 397.216 33.408C397.856 34.6027 398.816 35.5627 400.096 36.288C401.376 37.0133 402.89 37.376 404.64 37.376C407.754 37.376 410.08 36.224 411.616 33.92C413.152 31.616 413.92 28.9493 413.92 25.92V6.336C413.92 4.672 414.133 3.49866 414.56 2.816Z" fill="#E16350"/>
</svg>
