<svg width="445" height="90" viewBox="0 0 445 90" fill="none" xmlns="http://www.w3.org/2000/svg">
<path d="M31.802 23.816C32.1433 23.176 32.7193 22.728 33.53 22.472C34.3407 22.216 35.3647 22.088 36.602 22.088C37.8393 22.088 38.8207 22.1947 39.546 22.408C40.2713 22.6213 40.826 22.8773 41.21 23.176C41.594 23.4747 41.8927 23.9013 42.106 24.456C42.3193 25.1813 42.426 26.2907 42.426 27.784V63.304C42.426 64.2853 42.3833 65.032 42.298 65.544C42.2553 66.0133 42.0633 66.568 41.722 67.208C41.1247 68.36 39.4607 68.936 36.73 68.936C33.7433 68.936 31.994 68.1467 31.482 66.568C31.226 65.8427 31.098 64.7333 31.098 63.24V50.248H14.138V63.304C14.138 64.2853 14.0953 65.032 14.01 65.544C13.9673 66.0133 13.7753 66.568 13.434 67.208C12.8367 68.36 11.1727 68.936 8.442 68.936C5.45533 68.936 3.706 68.1467 3.194 66.568C2.938 65.8427 2.81 64.7333 2.81 63.24V27.72C2.81 26.7387 2.83133 26.0133 2.874 25.544C2.95933 25.032 3.17267 24.456 3.514 23.816C4.11133 22.664 5.77533 22.088 8.506 22.088C11.4927 22.088 13.2633 22.8773 13.818 24.456C14.0313 25.1813 14.138 26.2907 14.138 27.784V40.84H31.098V27.72C31.098 26.7387 31.1193 26.0133 31.162 25.544C31.2473 25.032 31.4607 24.456 31.802 23.816ZM69.576 21.512C75.8907 21.512 81.3733 23.7947 86.024 28.36C90.6747 32.9253 93 38.6 93 45.384C93 52.1253 90.7813 57.8853 86.344 62.664C81.9067 67.4 76.4453 69.768 69.96 69.768C63.4747 69.768 57.9493 67.4213 53.384 62.728C48.8613 58.0347 46.6 52.4453 46.6 45.96C46.6 42.4187 47.24 39.112 48.52 36.04C49.8 32.9253 51.5067 30.3227 53.64 28.232C55.7733 26.1413 58.2267 24.4987 61 23.304C63.7733 22.1093 66.632 21.512 69.576 21.512ZM57.928 45.64C57.928 49.4373 59.144 52.5307 61.576 54.92C64.0507 57.2667 66.8027 58.44 69.832 58.44C72.8613 58.44 75.592 57.288 78.024 54.984C80.456 52.68 81.672 49.5867 81.672 45.704C81.672 41.8213 80.4347 38.7067 77.96 36.36C75.528 34.0133 72.7973 32.84 69.768 32.84C66.7387 32.84 64.008 34.0347 61.576 36.424C59.144 38.7707 57.928 41.8427 57.928 45.64ZM153.313 22.344C156.172 23.368 157.601 24.7333 157.601 26.44C157.601 26.9947 157.345 28.04 156.833 29.576L144.545 65.096C144.46 65.3947 144.31 65.7573 144.097 66.184C143.884 66.6107 143.308 67.1867 142.369 67.912C141.473 68.5947 140.385 68.936 139.105 68.936C137.868 68.936 136.78 68.5947 135.841 67.912C134.945 67.1867 134.348 66.4827 134.049 65.8L126.561 43.72C121.825 57.7147 119.414 64.84 119.329 65.096C119.244 65.352 119.052 65.7147 118.753 66.184C118.454 66.6533 118.113 67.08 117.729 67.464C116.748 68.4453 115.574 68.936 114.209 68.936C112.844 68.936 111.713 68.616 110.817 67.976C109.964 67.336 109.388 66.696 109.089 66.056L108.641 65.096L96.289 29.576C95.8197 28.168 95.585 27.1227 95.585 26.44C95.585 24.7333 97.0143 23.3893 99.873 22.408C101.11 21.9813 102.22 21.768 103.201 21.768C104.225 21.768 104.993 22.1093 105.505 22.792C106.06 23.4747 106.55 24.52 106.977 25.928L114.017 47.304L120.993 26.248C121.59 24.456 122.678 23.2187 124.257 22.536C124.94 22.2373 125.814 22.088 126.881 22.088C127.99 22.088 129.014 22.4507 129.953 23.176C130.892 23.8587 131.489 24.5413 131.745 25.224L139.105 47.432L146.145 25.928C146.486 24.9467 146.764 24.2213 146.977 23.752C147.19 23.2827 147.574 22.8347 148.129 22.408C148.726 21.9387 149.452 21.704 150.305 21.704C151.158 21.704 152.161 21.9173 153.313 22.344ZM180.382 22.024H215.966C217.331 22.024 218.334 22.1947 218.974 22.536C219.614 22.8347 220.041 23.3253 220.254 24.008C220.467 24.6907 220.574 25.5867 220.574 26.696C220.574 27.8053 220.467 28.7013 220.254 29.384C220.041 30.024 219.678 30.472 219.166 30.728C218.398 31.112 217.31 31.304 215.902 31.304H203.678V63.496C203.678 64.4773 203.635 65.2027 203.55 65.672C203.507 66.1413 203.315 66.696 202.974 67.336C202.675 67.9333 202.121 68.36 201.31 68.616C200.499 68.872 199.433 69 198.11 69C196.787 69 195.721 68.872 194.91 68.616C194.142 68.36 193.587 67.9333 193.246 67.336C192.947 66.696 192.755 66.1413 192.67 65.672C192.627 65.16 192.606 64.4133 192.606 63.432V31.304H180.318C178.953 31.304 177.95 31.1547 177.31 30.856C176.67 30.5147 176.243 30.0027 176.03 29.32C175.817 28.6373 175.71 27.7413 175.71 26.632C175.71 25.5227 175.817 24.648 176.03 24.008C176.243 23.3253 176.606 22.856 177.118 22.6C177.886 22.216 178.974 22.024 180.382 22.024ZM242.326 21.512C248.641 21.512 254.123 23.7947 258.774 28.36C263.425 32.9253 265.75 38.6 265.75 45.384C265.75 52.1253 263.531 57.8853 259.094 62.664C254.657 67.4 249.195 69.768 242.71 69.768C236.225 69.768 230.699 67.4213 226.134 62.728C221.611 58.0347 219.35 52.4453 219.35 45.96C219.35 42.4187 219.99 39.112 221.27 36.04C222.55 32.9253 224.257 30.3227 226.39 28.232C228.523 26.1413 230.977 24.4987 233.75 23.304C236.523 22.1093 239.382 21.512 242.326 21.512ZM230.678 45.64C230.678 49.4373 231.894 52.5307 234.326 54.92C236.801 57.2667 239.553 58.44 242.582 58.44C245.611 58.44 248.342 57.288 250.774 54.984C253.206 52.68 254.422 49.5867 254.422 45.704C254.422 41.8213 253.185 38.7067 250.71 36.36C248.278 34.0133 245.547 32.84 242.518 32.84C239.489 32.84 236.758 34.0347 234.326 36.424C231.894 38.7707 230.678 41.8427 230.678 45.64ZM320.747 31.56C321.856 33.8213 322.411 36.3387 322.411 39.112C322.411 41.8853 321.856 44.4027 320.747 46.664C319.637 48.8827 318.208 50.6533 316.458 51.976C312.917 54.7067 309.248 56.072 305.451 56.072H297.451V63.304C297.451 64.2853 297.408 65.032 297.323 65.544C297.28 66.0133 297.088 66.568 296.747 67.208C296.149 68.36 294.485 68.936 291.755 68.936C288.768 68.936 287.019 68.1467 286.507 66.568C286.251 65.8427 286.123 64.7333 286.123 63.24V27.72C286.123 26.7387 286.144 26.0133 286.187 25.544C286.272 25.032 286.485 24.456 286.827 23.816C287.424 22.664 289.088 22.088 291.819 22.088H305.515C309.269 22.088 312.917 23.4533 316.458 26.184C318.208 27.5067 319.637 29.2987 320.747 31.56ZM305.515 44.744C306.795 44.744 308.053 44.2747 309.291 43.336C310.528 42.3973 311.147 40.9893 311.147 39.112C311.147 37.2347 310.528 35.8267 309.291 34.888C308.053 33.9067 306.773 33.416 305.451 33.416H297.451V44.744H305.515ZM337.888 59.528H355.296C356.704 59.528 357.728 59.6987 358.368 60.04C359.008 60.3387 359.435 60.8293 359.648 61.512C359.861 62.1947 359.968 63.112 359.968 64.264C359.968 65.3733 359.861 66.2693 359.648 66.952C359.435 67.6347 359.072 68.104 358.56 68.36C357.749 68.7867 356.64 69 355.232 69H332.192C329.205 69 327.456 68.1893 326.944 66.568C326.688 65.8853 326.56 64.7973 326.56 63.304V27.72C326.56 26.7387 326.581 26.0133 326.624 25.544C326.709 25.032 326.923 24.456 327.264 23.816C327.861 22.664 329.525 22.088 332.256 22.088C335.243 22.088 337.013 22.8773 337.568 24.456C337.781 25.1813 337.888 26.2907 337.888 27.784V59.528ZM391.195 25.416L408.475 61.128C409.2 62.5787 409.563 63.6667 409.563 64.392C409.563 65.928 408.325 67.3147 405.851 68.552C404.4 69.2773 403.248 69.64 402.395 69.64C401.584 69.64 400.901 69.448 400.347 69.064C399.835 68.68 399.451 68.2747 399.194 67.848C398.981 67.4213 398.661 66.7813 398.235 65.928L394.907 59.016H377.179L373.851 65.928C373.424 66.7813 373.083 67.4 372.827 67.784C372.613 68.168 372.229 68.5733 371.675 69C371.163 69.384 370.48 69.576 369.627 69.576C368.816 69.576 367.685 69.2133 366.235 68.488C363.76 67.2933 362.523 65.928 362.523 64.392C362.523 63.6667 362.885 62.5787 363.611 61.128L380.891 25.352C381.36 24.3707 382.064 23.5813 383.003 22.984C383.984 22.3867 385.008 22.088 386.075 22.088C388.379 22.088 390.085 23.1973 391.195 25.416ZM386.011 40.776L381.787 49.544H390.299L386.011 40.776ZM440.683 22.984C442.774 24.4347 443.819 25.8427 443.819 27.208C443.819 28.0187 443.328 29.1493 442.347 30.6L428.523 51.272V63.496C428.523 64.4773 428.48 65.224 428.395 65.736C428.352 66.2053 428.16 66.76 427.819 67.4C427.478 68.04 426.902 68.488 426.091 68.744C425.28 69 424.192 69.128 422.827 69.128C421.462 69.128 420.374 69 419.563 68.744C418.752 68.488 418.176 68.04 417.835 67.4C417.494 66.7173 417.28 66.1413 417.195 65.672C417.152 65.16 417.131 64.392 417.131 63.368V51.272L403.307 30.6C402.326 29.1493 401.835 28.0187 401.835 27.208C401.835 25.8427 402.774 24.5413 404.651 23.304C406.528 22.024 407.872 21.384 408.683 21.384C409.494 21.384 410.134 21.5547 410.603 21.896C411.328 22.3653 412.096 23.24 412.907 24.52L422.827 40.392L432.747 24.52C433.558 23.24 434.262 22.408 434.859 22.024C435.456 21.5973 436.139 21.384 436.907 21.384C437.718 21.384 438.976 21.9173 440.683 22.984Z" fill="#616264"/>
<path d="M1 79H444" stroke="#616264" stroke-width="2" stroke-linecap="round"/>
</svg>
