<svg width="431" height="90" viewBox="0 0 431 90" fill="none" xmlns="http://www.w3.org/2000/svg">
<path d="M31.7708 23.816C32.1121 23.176 32.6881 22.728 33.4988 22.472C34.3094 22.216 35.3334 22.088 36.5708 22.088C37.8081 22.088 38.7894 22.1947 39.5148 22.408C40.2401 22.6213 40.7948 22.8773 41.1788 23.176C41.5628 23.4747 41.8614 23.9013 42.0748 24.456C42.2881 25.1813 42.3948 26.2907 42.3948 27.784V63.304C42.3948 64.2853 42.3521 65.032 42.2668 65.544C42.2241 66.0133 42.0321 66.568 41.6908 67.208C41.0934 68.36 39.4294 68.936 36.6988 68.936C33.7121 68.936 31.9628 68.1467 31.4508 66.568C31.1948 65.8427 31.0668 64.7333 31.0668 63.24V50.248H14.1068V63.304C14.1068 64.2853 14.0641 65.032 13.9788 65.544C13.9361 66.0133 13.7441 66.568 13.4028 67.208C12.8054 68.36 11.1414 68.936 8.41075 68.936C5.42408 68.936 3.67475 68.1467 3.16275 66.568C2.90675 65.8427 2.77875 64.7333 2.77875 63.24V27.72C2.77875 26.7387 2.80008 26.0133 2.84275 25.544C2.92808 25.032 3.14142 24.456 3.48275 23.816C4.08008 22.664 5.74408 22.088 8.47475 22.088C11.4614 22.088 13.2321 22.8773 13.7868 24.456C14.0001 25.1813 14.1068 26.2907 14.1068 27.784V40.84H31.0668V27.72C31.0668 26.7387 31.0881 26.0133 31.1308 25.544C31.2161 25.032 31.4294 24.456 31.7708 23.816ZM69.5448 21.512C75.8594 21.512 81.3421 23.7947 85.9928 28.36C90.6434 32.9253 92.9688 38.6 92.9688 45.384C92.9688 52.1253 90.7501 57.8853 86.3128 62.664C81.8754 67.4 76.4141 69.768 69.9288 69.768C63.4434 69.768 57.9181 67.4213 53.3528 62.728C48.8301 58.0347 46.5688 52.4453 46.5688 45.96C46.5688 42.4187 47.2088 39.112 48.4888 36.04C49.7688 32.9253 51.4754 30.3227 53.6088 28.232C55.7421 26.1413 58.1954 24.4987 60.9688 23.304C63.7421 22.1093 66.6008 21.512 69.5448 21.512ZM57.8968 45.64C57.8968 49.4373 59.1128 52.5307 61.5448 54.92C64.0194 57.2667 66.7714 58.44 69.8008 58.44C72.8301 58.44 75.5608 57.288 77.9928 54.984C80.4248 52.68 81.6408 49.5867 81.6408 45.704C81.6408 41.8213 80.4034 38.7067 77.9288 36.36C75.4968 34.0133 72.7661 32.84 69.7368 32.84C66.7074 32.84 63.9768 34.0347 61.5448 36.424C59.1128 38.7707 57.8968 41.8427 57.8968 45.64ZM130.562 43.848C133.079 46.8347 134.338 50.184 134.338 53.896C134.252 58.1627 132.78 61.7467 129.922 64.648C127.106 67.5067 123.671 68.936 119.618 68.936H102.786C99.7991 68.936 98.0498 68.1253 97.5378 66.504C97.2818 65.7787 97.1538 64.6693 97.1538 63.176V27.656C97.1538 26.632 97.1751 25.8853 97.2178 25.416C97.3031 24.9467 97.5164 24.392 97.8578 23.752C98.4551 22.6 100.119 22.024 102.85 22.024H118.978C122.903 22.024 126.188 23.3893 128.834 26.12C131.607 28.8933 132.994 32.2213 132.994 36.104C132.994 38.92 132.183 41.5013 130.562 43.848ZM123.01 53.256C123.01 52.232 122.882 51.4213 122.626 50.824C122.412 50.2267 122.028 49.8 121.474 49.544C120.62 49.2027 119.426 49.032 117.89 49.032C116.354 49.032 115.202 48.7333 114.434 48.136C113.666 47.5387 113.282 46.3227 113.282 44.488C113.282 42.6107 113.666 41.3733 114.434 40.776C115.244 40.1787 116.567 39.88 118.402 39.88C120.108 39.88 121.132 39.432 121.474 38.536C121.602 38.0667 121.666 37.2987 121.666 36.232C121.666 35.1653 121.303 34.4187 120.578 33.992C119.895 33.5653 118.85 33.352 117.442 33.352H108.482V57.608H118.978C121.666 57.608 123.01 56.1573 123.01 53.256ZM165.601 25.416L182.881 61.128C183.606 62.5787 183.969 63.6667 183.969 64.392C183.969 65.928 182.731 67.3147 180.257 68.552C178.806 69.2773 177.654 69.64 176.801 69.64C175.99 69.64 175.307 69.448 174.753 69.064C174.241 68.68 173.857 68.2747 173.601 67.848C173.387 67.4213 173.067 66.7813 172.641 65.928L169.313 59.016H151.585L148.257 65.928C147.83 66.7813 147.489 67.4 147.233 67.784C147.019 68.168 146.635 68.5733 146.081 69C145.569 69.384 144.886 69.576 144.033 69.576C143.222 69.576 142.091 69.2133 140.641 68.488C138.166 67.2933 136.929 65.928 136.929 64.392C136.929 63.6667 137.291 62.5787 138.017 61.128L155.297 25.352C155.766 24.3707 156.47 23.5813 157.409 22.984C158.39 22.3867 159.414 22.088 160.481 22.088C162.785 22.088 164.491 23.1973 165.601 25.416ZM160.417 40.776L156.193 49.544H164.705L160.417 40.776ZM207.562 45.448C214.09 51.72 218.72 56.4347 221.45 59.592C222.858 61.1707 223.562 62.5147 223.562 63.624C223.562 64.6907 222.709 65.9707 221.002 67.464C219.296 68.9147 217.888 69.64 216.778 69.64C215.712 69.64 214.41 68.744 212.874 66.952L198.794 50.888V63.368C198.794 64.392 198.752 65.1387 198.666 65.608C198.624 66.0773 198.432 66.632 198.09 67.272C197.493 68.424 195.829 69 193.098 69C190.112 69 188.362 68.1893 187.85 66.568C187.594 65.8853 187.466 64.7973 187.466 63.304V27.72C187.466 26.7387 187.488 26.0133 187.53 25.544C187.616 25.032 187.829 24.456 188.17 23.816C188.768 22.664 190.432 22.088 193.162 22.088C196.149 22.088 197.92 22.8773 198.474 24.456C198.688 25.1813 198.794 26.2907 198.794 27.784V40.008C204.597 33.48 209.29 28.1253 212.874 23.944C214.368 22.1947 215.669 21.32 216.778 21.32C217.888 21.32 219.296 22.0667 221.002 23.56C222.709 25.0107 223.562 26.2907 223.562 27.4C223.562 28.4667 222.922 29.7467 221.642 31.24C219.168 34.0987 215.328 38.024 210.122 43.016L207.562 45.448ZM268.977 40.712H280.241C282.545 40.7973 283.953 41.3947 284.465 42.504C284.891 43.3147 285.105 44.5093 285.105 46.088V60.168C285.105 61.5333 284.507 62.8347 283.313 64.072C279.729 67.784 274.353 69.64 267.185 69.64C260.827 69.64 255.302 67.2507 250.609 62.472C245.915 57.6507 243.569 51.848 243.569 45.064C243.569 38.28 245.958 32.6267 250.737 28.104C255.515 23.5387 261.147 21.256 267.633 21.256C272.667 21.256 277.425 22.92 281.905 26.248C283.057 27.1013 283.633 28.0613 283.633 29.128C283.633 30.152 283.142 31.3467 282.161 32.712C280.497 34.9733 278.982 36.104 277.617 36.104C276.806 36.104 275.505 35.528 273.713 34.376C271.921 33.1813 269.787 32.584 267.313 32.584C264.07 32.584 261.19 33.736 258.673 36.04C256.155 38.3013 254.897 41.288 254.897 45C254.897 48.6693 256.177 51.8053 258.737 54.408C261.297 56.968 264.198 58.248 267.441 58.248C269.787 58.248 271.899 57.864 273.777 57.096V50.12H268.721C267.398 50.12 266.459 49.9493 265.905 49.608C265.35 49.2667 264.987 48.776 264.817 48.136C264.646 47.4533 264.561 46.5573 264.561 45.448C264.561 44.296 264.646 43.3787 264.817 42.696C265.03 42.0133 265.393 41.544 265.905 41.288C266.673 40.904 267.697 40.712 268.977 40.712ZM312.232 21.512C318.547 21.512 324.03 23.7947 328.68 28.36C333.331 32.9253 335.656 38.6 335.656 45.384C335.656 52.1253 333.438 57.8853 329 62.664C324.563 67.4 319.102 69.768 312.616 69.768C306.131 69.768 300.606 67.4213 296.04 62.728C291.518 58.0347 289.256 52.4453 289.256 45.96C289.256 42.4187 289.896 39.112 291.176 36.04C292.456 32.9253 294.163 30.3227 296.296 28.232C298.43 26.1413 300.883 24.4987 303.656 23.304C306.43 22.1093 309.288 21.512 312.232 21.512ZM300.584 45.64C300.584 49.4373 301.8 52.5307 304.232 54.92C306.707 57.2667 309.459 58.44 312.488 58.44C315.518 58.44 318.248 57.288 320.68 54.984C323.112 52.68 324.328 49.5867 324.328 45.704C324.328 41.8213 323.091 38.7067 320.616 36.36C318.184 34.0133 315.454 32.84 312.424 32.84C309.395 32.84 306.664 34.0347 304.232 36.424C301.8 38.7707 300.584 41.8427 300.584 45.64ZM370.113 24.072C370.54 23.304 371.159 22.792 371.969 22.536C372.78 22.28 373.783 22.152 374.977 22.152C376.215 22.152 377.196 22.2587 377.921 22.472C378.689 22.6853 379.244 22.9413 379.585 23.24C379.969 23.5387 380.247 23.9867 380.417 24.584C380.673 25.2667 380.801 26.3547 380.801 27.848V63.368C380.801 64.392 380.759 65.1387 380.673 65.608C380.631 66.0773 380.439 66.632 380.097 67.272C379.5 68.424 377.836 69 375.105 69C373.441 69 372.289 68.872 371.649 68.616C371.009 68.36 370.476 67.9547 370.049 67.4C360.449 54.6 354.135 46.2373 351.105 42.312V63.368C351.105 64.392 351.063 65.1387 350.977 65.608C350.935 66.0773 350.743 66.632 350.401 67.272C349.804 68.424 348.14 69 345.409 69C342.764 69 341.143 68.424 340.545 67.272C340.204 66.632 339.991 66.056 339.905 65.544C339.863 65.032 339.841 64.2853 339.841 63.304V27.592C339.841 25.9707 340.033 24.7973 340.417 24.072C340.844 23.304 341.463 22.792 342.273 22.536C343.084 22.28 344.129 22.152 345.409 22.152C346.689 22.152 347.692 22.28 348.417 22.536C349.185 22.7493 349.719 23.0053 350.017 23.304C350.188 23.432 350.679 23.9867 351.489 24.968C360.492 37.2133 366.508 45.2987 369.537 49.224V27.592C369.537 25.9707 369.729 24.7973 370.113 24.072ZM416.56 23.816C416.986 23.1333 417.605 22.664 418.416 22.408C419.226 22.152 420.229 22.024 421.424 22.024C422.661 22.024 423.642 22.1307 424.368 22.344C425.093 22.5573 425.648 22.8133 426.032 23.112C426.416 23.4107 426.693 23.8587 426.864 24.456C427.12 25.1813 427.248 26.2907 427.248 27.784V47.112C427.248 52.744 425.498 57.864 422 62.472C420.293 64.648 418.096 66.4187 415.408 67.784C412.72 69.1067 409.733 69.768 406.448 69.768C403.205 69.768 400.24 69.0853 397.552 67.72C394.906 66.3547 392.752 64.5627 391.088 62.344C387.632 57.8213 385.904 52.7013 385.904 46.984V27.72C385.904 26.696 385.925 25.9493 385.968 25.48C386.053 24.968 386.266 24.392 386.608 23.752C386.949 23.112 387.525 22.664 388.336 22.408C389.146 22.152 390.234 22.024 391.6 22.024C392.965 22.024 394.053 22.152 394.864 22.408C395.674 22.664 396.229 23.112 396.528 23.752C397.04 24.7333 397.296 26.0773 397.296 27.784V46.984C397.296 49.5867 397.936 52.0613 399.216 54.408C399.856 55.6027 400.816 56.5627 402.096 57.288C403.376 58.0133 404.89 58.376 406.64 58.376C409.754 58.376 412.08 57.224 413.616 54.92C415.152 52.616 415.92 49.9493 415.92 46.92V27.336C415.92 25.672 416.133 24.4987 416.56 23.816Z" fill="#616264"/>
<path d="M1 79L430 79" stroke="#616264" stroke-width="2" stroke-linecap="round"/>
</svg>
