<svg width="205" height="90" viewBox="0 0 205 90" fill="none" xmlns="http://www.w3.org/2000/svg">
<path d="M3.3265 62.408C2.21717 61.0427 1.6625 59.8267 1.6625 58.76C1.6625 57.6507 2.57983 56.2 4.4145 54.408C5.48117 53.384 6.61183 52.872 7.8065 52.872C9.00117 52.872 10.6652 53.9387 12.7985 56.072C13.3958 56.7973 14.2492 57.5013 15.3585 58.184C16.4678 58.824 17.4918 59.144 18.4305 59.144C22.3985 59.144 24.3825 57.5227 24.3825 54.28C24.3825 53.2987 23.8278 52.488 22.7185 51.848C21.6518 51.1653 20.3078 50.6747 18.6865 50.376C17.0652 50.0773 15.3158 49.608 13.4385 48.968C11.5612 48.2853 9.81183 47.496 8.1905 46.6C6.56917 45.704 5.20383 44.296 4.0945 42.376C3.02783 40.4133 2.4945 38.0667 2.4945 35.336C2.4945 31.5813 3.88117 28.3173 6.6545 25.544C9.4705 22.728 13.2892 21.32 18.1105 21.32C20.6705 21.32 22.9958 21.6613 25.0865 22.344C27.2198 22.984 28.6918 23.6453 29.5025 24.328L31.1025 25.544C32.4252 26.7813 33.0865 27.8267 33.0865 28.68C33.0865 29.5333 32.5745 30.7067 31.5505 32.2C30.0998 34.3333 28.6065 35.4 27.0705 35.4C26.1745 35.4 25.0652 34.9733 23.7425 34.12C23.6145 34.0347 23.3585 33.8213 22.9745 33.48C22.6332 33.1387 22.3132 32.8613 22.0145 32.648C21.1185 32.0933 19.9665 31.816 18.5585 31.816C17.1932 31.816 16.0412 32.1573 15.1025 32.84C14.2065 33.48 13.7585 34.3973 13.7585 35.592C13.7585 36.744 14.2918 37.6827 15.3585 38.408C16.4678 39.1333 17.8332 39.624 19.4545 39.88C21.0758 40.136 22.8465 40.5413 24.7665 41.096C26.6865 41.608 28.4572 42.248 30.0785 43.016C31.6998 43.784 33.0438 45.128 34.1105 47.048C35.2198 48.9253 35.7745 51.2507 35.7745 54.024C35.7745 56.7973 35.2198 59.2507 34.1105 61.384C33.0012 63.4747 31.5505 65.096 29.7585 66.248C26.3025 68.5093 22.6118 69.64 18.6865 69.64C16.6812 69.64 14.7825 69.4053 12.9905 68.936C11.1985 68.424 9.74783 67.8053 8.6385 67.08C6.37717 65.7147 4.7985 64.392 3.9025 63.112L3.3265 62.408ZM39.8195 22.024H75.4035C76.7688 22.024 77.7715 22.1947 78.4115 22.536C79.0515 22.8347 79.4782 23.3253 79.6915 24.008C79.9048 24.6907 80.0115 25.5867 80.0115 26.696C80.0115 27.8053 79.9048 28.7013 79.6915 29.384C79.4782 30.024 79.1155 30.472 78.6035 30.728C77.8355 31.112 76.7475 31.304 75.3395 31.304H63.1155V63.496C63.1155 64.4773 63.0728 65.2027 62.9875 65.672C62.9448 66.1413 62.7528 66.696 62.4115 67.336C62.1128 67.9333 61.5582 68.36 60.7475 68.616C59.9368 68.872 58.8702 69 57.5475 69C56.2248 69 55.1582 68.872 54.3475 68.616C53.5795 68.36 53.0248 67.9333 52.6835 67.336C52.3848 66.696 52.1928 66.1413 52.1075 65.672C52.0648 65.16 52.0435 64.4133 52.0435 63.432V31.304H39.7555C38.3902 31.304 37.3875 31.1547 36.7475 30.856C36.1075 30.5147 35.6808 30.0027 35.4675 29.32C35.2542 28.6373 35.1475 27.7413 35.1475 26.632C35.1475 25.5227 35.2542 24.648 35.4675 24.008C35.6808 23.3253 36.0435 22.856 36.5555 22.6C37.3235 22.216 38.4115 22.024 39.8195 22.024ZM101.007 25.416L118.287 61.128C119.012 62.5787 119.375 63.6667 119.375 64.392C119.375 65.928 118.138 67.3147 115.663 68.552C114.212 69.2773 113.06 69.64 112.207 69.64C111.396 69.64 110.714 69.448 110.159 69.064C109.647 68.68 109.263 68.2747 109.007 67.848C108.794 67.4213 108.474 66.7813 108.047 65.928L104.719 59.016H86.991L83.663 65.928C83.2363 66.7813 82.895 67.4 82.639 67.784C82.4257 68.168 82.0417 68.5733 81.487 69C80.975 69.384 80.2923 69.576 79.439 69.576C78.6283 69.576 77.4977 69.2133 76.047 68.488C73.5723 67.2933 72.335 65.928 72.335 64.392C72.335 63.6667 72.6977 62.5787 73.423 61.128L90.703 25.352C91.1723 24.3707 91.8763 23.5813 92.815 22.984C93.7963 22.3867 94.8203 22.088 95.887 22.088C98.191 22.088 99.8977 23.1973 101.007 25.416ZM95.823 40.776L91.599 49.544H100.111L95.823 40.776ZM158.777 61.064C159.417 62.6 159.737 63.7093 159.737 64.392C159.737 66.0133 158.414 67.3787 155.769 68.488C154.403 69.0853 153.294 69.384 152.441 69.384C151.63 69.384 150.947 69.192 150.393 68.808C149.881 68.3813 149.497 67.9547 149.241 67.528C148.814 66.7173 147.15 62.856 144.249 55.944L142.265 56.072H134.201V63.304C134.201 64.2853 134.158 65.032 134.073 65.544C134.03 66.0133 133.838 66.568 133.497 67.208C132.899 68.36 131.235 68.936 128.505 68.936C125.518 68.936 123.769 68.1467 123.257 66.568C123.001 65.8427 122.873 64.7333 122.873 63.24V27.72C122.873 26.7387 122.894 26.0133 122.937 25.544C123.022 25.032 123.235 24.456 123.577 23.816C124.174 22.664 125.838 22.088 128.569 22.088H142.393C146.147 22.088 149.795 23.4533 153.337 26.184C155.043 27.5067 156.451 29.2987 157.561 31.56C158.67 33.8213 159.225 36.3387 159.225 39.112C159.225 43.9333 157.625 47.9013 154.425 51.016C155.363 53.2773 156.814 56.6267 158.777 61.064ZM134.201 44.744H142.393C143.63 44.744 144.867 44.2747 146.105 43.336C147.342 42.3973 147.961 40.9893 147.961 39.112C147.961 37.2347 147.342 35.8267 146.105 34.888C144.867 33.9067 143.587 33.416 142.265 33.416H134.201V44.744ZM163.757 22.024H199.341C200.706 22.024 201.709 22.1947 202.349 22.536C202.989 22.8347 203.416 23.3253 203.629 24.008C203.842 24.6907 203.949 25.5867 203.949 26.696C203.949 27.8053 203.842 28.7013 203.629 29.384C203.416 30.024 203.053 30.472 202.541 30.728C201.773 31.112 200.685 31.304 199.277 31.304H187.053V63.496C187.053 64.4773 187.01 65.2027 186.925 65.672C186.882 66.1413 186.69 66.696 186.349 67.336C186.05 67.9333 185.496 68.36 184.685 68.616C183.874 68.872 182.808 69 181.485 69C180.162 69 179.096 68.872 178.285 68.616C177.517 68.36 176.962 67.9333 176.621 67.336C176.322 66.696 176.13 66.1413 176.045 65.672C176.002 65.16 175.981 64.4133 175.981 63.432V31.304H163.693C162.328 31.304 161.325 31.1547 160.685 30.856C160.045 30.5147 159.618 30.0027 159.405 29.32C159.192 28.6373 159.085 27.7413 159.085 26.632C159.085 25.5227 159.192 24.648 159.405 24.008C159.618 23.3253 159.981 22.856 160.493 22.6C161.261 22.216 162.349 22.024 163.757 22.024Z" fill="#616264"/>
<line x1="1" y1="79" x2="204" y2="79" stroke="#616264" stroke-width="2" stroke-linecap="round"/>
</svg>
