<svg width="282" height="169" viewBox="0 0 282 169" fill="none" xmlns="http://www.w3.org/2000/svg">
<path d="M40.6526 116.568H57.5486C61.0046 116.696 63.1166 117.592 63.8846 119.256C64.5246 120.472 64.8446 122.264 64.8446 124.632V145.752C64.8446 147.8 63.9486 149.752 62.1566 151.608C56.7806 157.176 48.7166 159.96 37.9646 159.96C28.4286 159.96 20.1406 156.376 13.1006 149.208C6.06063 141.976 2.54063 133.272 2.54063 123.096C2.54063 112.92 6.12463 104.44 13.2926 97.656C20.4606 90.808 28.9086 87.384 38.6366 87.384C46.1886 87.384 53.3246 89.88 60.0446 94.872C61.7726 96.152 62.6366 97.592 62.6366 99.192C62.6366 100.728 61.9006 102.52 60.4286 104.568C57.9326 107.96 55.6606 109.656 53.6126 109.656C52.3966 109.656 50.4446 108.792 47.7566 107.064C45.0686 105.272 41.8686 104.376 38.1566 104.376C33.2926 104.376 28.9726 106.104 25.1966 109.56C21.4206 112.952 19.5326 117.432 19.5326 123C19.5326 128.504 21.4526 133.208 25.2926 137.112C29.1326 140.952 33.4846 142.872 38.3486 142.872C41.8686 142.872 45.0366 142.296 47.8526 141.144V130.68H40.2686C38.2846 130.68 36.8766 130.424 36.0446 129.912C35.2126 129.4 34.6686 128.664 34.4126 127.704C34.1566 126.68 34.0286 125.336 34.0286 123.672C34.0286 121.944 34.1566 120.568 34.4126 119.544C34.7326 118.52 35.2766 117.816 36.0446 117.432C37.1966 116.856 38.7326 116.568 40.6526 116.568ZM105.536 87.768C115.008 87.768 123.232 91.192 130.208 98.04C137.184 104.888 140.672 113.4 140.672 123.576C140.672 133.688 137.344 142.328 130.688 149.496C124.032 156.6 115.84 160.152 106.112 160.152C96.3839 160.152 88.0959 156.632 81.2479 149.592C74.4639 142.552 71.0719 134.168 71.0719 124.44C71.0719 119.128 72.0319 114.168 73.9519 109.56C75.8719 104.888 78.4319 100.984 81.6319 97.848C84.8319 94.712 88.5119 92.248 92.6719 90.456C96.8319 88.664 101.12 87.768 105.536 87.768ZM88.0639 123.96C88.0639 129.656 89.8879 134.296 93.5359 137.88C97.2479 141.4 101.376 143.16 105.92 143.16C110.464 143.16 114.56 141.432 118.208 137.976C121.856 134.52 123.68 129.88 123.68 124.056C123.68 118.232 121.824 113.56 118.112 110.04C114.464 106.52 110.368 104.76 105.824 104.76C101.28 104.76 97.1839 106.552 93.5359 110.136C89.8879 113.656 88.0639 118.264 88.0639 123.96ZM192.357 91.608C192.997 90.456 193.925 89.688 195.141 89.304C196.357 88.92 197.861 88.728 199.653 88.728C201.509 88.728 202.981 88.888 204.069 89.208C205.221 89.528 206.053 89.912 206.565 90.36C207.141 90.808 207.557 91.48 207.813 92.376C208.197 93.4 208.389 95.032 208.389 97.272V150.552C208.389 152.088 208.325 153.208 208.197 153.912C208.133 154.616 207.845 155.448 207.333 156.408C206.437 158.136 203.941 159 199.845 159C197.349 159 195.621 158.808 194.661 158.424C193.701 158.04 192.901 157.432 192.261 156.6C177.861 137.4 168.389 124.856 163.845 118.968V150.552C163.845 152.088 163.781 153.208 163.653 153.912C163.589 154.616 163.301 155.448 162.789 156.408C161.893 158.136 159.397 159 155.301 159C151.333 159 148.901 158.136 148.005 156.408C147.493 155.448 147.173 154.584 147.045 153.816C146.981 153.048 146.949 151.928 146.949 150.456V96.888C146.949 94.456 147.237 92.696 147.813 91.608C148.453 90.456 149.381 89.688 150.597 89.304C151.813 88.92 153.381 88.728 155.301 88.728C157.221 88.728 158.725 88.92 159.813 89.304C160.965 89.624 161.765 90.008 162.213 90.456C162.469 90.648 163.205 91.48 164.421 92.952C177.925 111.32 186.949 123.448 191.493 129.336V96.888C191.493 94.456 191.781 92.696 192.357 91.608ZM262.027 91.224C262.667 90.2 263.595 89.496 264.811 89.112C266.027 88.728 267.531 88.536 269.323 88.536C271.179 88.536 272.651 88.696 273.739 89.016C274.827 89.336 275.659 89.72 276.235 90.168C276.811 90.616 277.227 91.288 277.483 92.184C277.867 93.272 278.059 94.936 278.059 97.176V126.168C278.059 134.616 275.435 142.296 270.187 149.208C267.627 152.472 264.331 155.128 260.299 157.176C256.267 159.16 251.787 160.152 246.859 160.152C241.995 160.152 237.547 159.128 233.515 157.08C229.547 155.032 226.315 152.344 223.819 149.016C218.635 142.232 216.043 134.552 216.043 125.976V97.08C216.043 95.544 216.075 94.424 216.139 93.72C216.267 92.952 216.587 92.088 217.099 91.128C217.611 90.168 218.475 89.496 219.691 89.112C220.907 88.728 222.539 88.536 224.587 88.536C226.635 88.536 228.267 88.728 229.483 89.112C230.699 89.496 231.531 90.168 231.979 91.128C232.747 92.6 233.131 94.616 233.131 97.176V125.976C233.131 129.88 234.091 133.592 236.011 137.112C236.971 138.904 238.411 140.344 240.331 141.432C242.251 142.52 244.523 143.064 247.147 143.064C251.819 143.064 255.307 141.336 257.611 137.88C259.915 134.424 261.067 130.424 261.067 125.88V96.504C261.067 94.008 261.387 92.248 262.027 91.224Z" fill="#E16350"/>
<path d="M57.5486 116.568L57.5856 115.569L57.5671 115.568H57.5486V116.568ZM63.8846 119.256L62.9767 119.675L62.9876 119.699L62.9997 119.722L63.8846 119.256ZM62.1566 151.608L61.4372 150.913L61.4372 150.913L62.1566 151.608ZM13.1006 149.208L12.3841 149.906L12.3872 149.909L13.1006 149.208ZM13.2926 97.656L13.98 98.3823L13.9834 98.3791L13.2926 97.656ZM60.0446 94.872L59.4483 95.6747L59.4494 95.6756L60.0446 94.872ZM60.4286 104.568L61.2341 105.161L61.2406 105.152L60.4286 104.568ZM47.7566 107.064L47.2019 107.896L47.2089 107.901L47.2159 107.905L47.7566 107.064ZM25.1966 109.56L25.8649 110.304L25.8718 110.298L25.1966 109.56ZM25.2926 137.112L24.5797 137.813L24.5855 137.819L25.2926 137.112ZM47.8526 141.144L48.2313 142.07L48.8526 141.815V141.144H47.8526ZM47.8526 130.68H48.8526V129.68H47.8526V130.68ZM36.0446 129.912L35.5205 130.764L35.5205 130.764L36.0446 129.912ZM34.4126 127.704L33.4425 127.947L33.4444 127.954L33.4464 127.962L34.4126 127.704ZM34.4126 119.544L33.4581 119.246L33.4495 119.273L33.4425 119.301L34.4126 119.544ZM36.0446 117.432L35.5974 116.538L35.5974 116.538L36.0446 117.432ZM40.6526 117.568H57.5486V115.568H40.6526V117.568ZM57.5116 117.567C60.9252 117.694 62.4696 118.576 62.9767 119.675L64.7926 118.837C63.7637 116.608 61.084 115.698 57.5856 115.569L57.5116 117.567ZM62.9997 119.722C63.5278 120.725 63.8446 122.324 63.8446 124.632H65.8446C65.8446 122.204 65.5215 120.219 64.7695 118.79L62.9997 119.722ZM63.8446 124.632V145.752H65.8446V124.632H63.8446ZM63.8446 145.752C63.8446 147.478 63.0982 149.193 61.4372 150.913L62.876 152.303C64.799 150.311 65.8446 148.122 65.8446 145.752H63.8446ZM61.4372 150.913C56.3134 156.22 48.5534 158.96 37.9646 158.96V160.96C48.8799 160.96 57.2478 158.132 62.876 152.303L61.4372 150.913ZM37.9646 158.96C28.7126 158.96 20.6773 155.495 13.8141 148.507L12.3872 149.909C19.604 157.257 28.1447 160.96 37.9646 160.96V158.96ZM13.8172 148.51C6.9606 141.467 3.54063 133.014 3.54063 123.096H1.54063C1.54063 133.53 5.16065 142.485 12.3841 149.906L13.8172 148.51ZM3.54063 123.096C3.54063 113.185 7.01846 104.971 13.98 98.3823L12.6052 96.9297C5.23079 103.909 1.54063 112.655 1.54063 123.096H3.54063ZM13.9834 98.3791C20.9693 91.705 29.1714 88.384 38.6366 88.384V86.384C28.6459 86.384 19.9519 89.911 12.6018 96.9329L13.9834 98.3791ZM38.6366 88.384C45.9505 88.384 52.8811 90.7962 59.4483 95.6747L60.641 94.0693C53.7682 88.9638 46.4267 86.384 38.6366 86.384V88.384ZM59.4494 95.6756C61.0177 96.8373 61.6366 98.0109 61.6366 99.192H63.6366C63.6366 97.1731 62.5275 95.4667 60.6399 94.0684L59.4494 95.6756ZM61.6366 99.192C61.6366 100.423 61.0379 102.007 59.6166 103.984L61.2406 105.152C62.7633 103.033 63.6366 101.033 63.6366 99.192H61.6366ZM59.6232 103.975C58.4082 105.627 57.2832 106.815 56.2544 107.583C55.2262 108.35 54.352 108.656 53.6126 108.656V110.656C54.9213 110.656 56.2071 110.114 57.4508 109.185C58.6941 108.257 59.9531 106.901 61.2341 105.161L59.6232 103.975ZM53.6126 108.656C53.2121 108.656 52.5719 108.505 51.6414 108.094C50.7295 107.69 49.6171 107.071 48.2974 106.223L47.2159 107.905C48.5842 108.785 49.7917 109.462 50.8319 109.922C51.8534 110.375 52.7972 110.656 53.6126 110.656V108.656ZM48.3113 106.232C45.4356 104.315 42.0358 103.376 38.1566 103.376V105.376C41.7015 105.376 44.7017 106.229 47.2019 107.896L48.3113 106.232ZM38.1566 103.376C33.0287 103.376 28.4712 105.207 24.5215 108.822L25.8718 110.298C29.474 107.001 33.5566 105.376 38.1566 105.376V103.376ZM24.5284 108.816C20.5194 112.417 18.5326 117.179 18.5326 123H20.5326C20.5326 117.685 22.3219 113.487 25.8649 110.304L24.5284 108.816ZM18.5326 123C18.5326 128.765 20.5547 133.721 24.5797 137.813L26.0056 136.411C22.3506 132.695 20.5326 128.243 20.5326 123H18.5326ZM24.5855 137.819C28.5892 141.823 33.1874 143.872 38.3486 143.872V141.872C33.7818 141.872 29.6761 140.081 25.9997 136.405L24.5855 137.819ZM38.3486 143.872C41.9783 143.872 45.2777 143.278 48.2313 142.07L47.474 140.218C44.7955 141.314 41.7589 141.872 38.3486 141.872V143.872ZM48.8526 141.144V130.68H46.8526V141.144H48.8526ZM47.8526 129.68H40.2686V131.68H47.8526V129.68ZM40.2686 129.68C38.3144 129.68 37.1492 129.418 36.5687 129.06L35.5205 130.764C36.604 131.43 38.2549 131.68 40.2686 131.68V129.68ZM36.5687 129.06C35.9588 128.685 35.5702 128.164 35.3789 127.446L33.4464 127.962C33.7671 129.164 34.4665 130.115 35.5205 130.764L36.5687 129.06ZM35.3828 127.461C35.1546 126.549 35.0286 125.295 35.0286 123.672H33.0286C33.0286 125.377 33.1587 126.811 33.4425 127.947L35.3828 127.461ZM35.0286 123.672C35.0286 121.981 35.1551 120.697 35.3828 119.787L33.4425 119.301C33.1581 120.439 33.0286 121.907 33.0286 123.672H35.0286ZM35.3671 119.842C35.6275 119.009 36.0246 118.56 36.4918 118.326L35.5974 116.538C34.5287 117.072 33.8377 118.031 33.4581 119.246L35.3671 119.842ZM36.4918 118.326C37.4537 117.846 38.818 117.568 40.6526 117.568V115.568C38.6473 115.568 36.9396 115.866 35.5974 116.538L36.4918 118.326ZM130.208 98.04L130.908 97.3264L130.908 97.3264L130.208 98.04ZM130.688 149.496L131.418 150.18L131.421 150.176L130.688 149.496ZM81.2479 149.592L80.5278 150.286L80.5311 150.289L81.2479 149.592ZM73.9519 109.56L74.875 109.945L74.8768 109.94L73.9519 109.56ZM81.6319 97.848L82.3318 98.5622L82.3318 98.5622L81.6319 97.848ZM92.6719 90.456L92.2763 89.5376L92.2763 89.5376L92.6719 90.456ZM93.5359 137.88L92.8351 138.593L92.8414 138.6L92.8478 138.606L93.5359 137.88ZM118.208 137.976L118.896 138.702L118.896 138.702L118.208 137.976ZM118.112 110.04L117.417 110.76L117.424 110.766L118.112 110.04ZM93.5359 110.136L94.2303 110.856L94.2367 110.849L93.5359 110.136ZM105.536 88.768C114.737 88.768 122.712 92.0826 129.507 98.7536L130.908 97.3264C123.752 90.3014 115.279 86.768 105.536 86.768V88.768ZM129.507 98.7536C136.283 105.405 139.672 113.656 139.672 123.576H141.672C141.672 113.144 138.085 104.371 130.908 97.3264L129.507 98.7536ZM139.672 123.576C139.672 133.445 136.433 141.839 129.955 148.816L131.421 150.176C138.255 142.817 141.672 133.931 141.672 123.576H139.672ZM129.958 148.812C123.491 155.715 115.563 159.152 106.112 159.152V161.152C116.117 161.152 124.573 157.485 131.418 150.18L129.958 148.812ZM106.112 159.152C96.6568 159.152 88.6265 155.743 81.9647 148.895L80.5311 150.289C87.5653 157.521 96.111 161.152 106.112 161.152V159.152ZM81.968 148.898C75.3625 142.043 72.0719 133.908 72.0719 124.44H70.0719C70.0719 134.428 73.5652 143.061 80.5278 150.286L81.968 148.898ZM72.0719 124.44C72.0719 119.251 73.0089 114.423 74.875 109.945L73.0288 109.175C71.0548 113.913 70.0719 119.005 70.0719 124.44H72.0719ZM74.8768 109.94C76.7518 105.378 79.2403 101.592 82.3318 98.5622L80.9319 97.1338C77.6234 100.376 74.9919 104.398 73.0269 109.18L74.8768 109.94ZM82.3318 98.5622C85.4428 95.5134 89.0194 93.1182 93.0675 91.3744L92.2763 89.5376C88.0044 91.3778 84.2209 93.9106 80.9319 97.1338L82.3318 98.5622ZM93.0675 91.3744C97.1058 89.6348 101.259 88.768 105.536 88.768V86.768C100.98 86.768 96.5579 87.6932 92.2763 89.5376L93.0675 91.3744ZM87.0639 123.96C87.0639 129.891 88.973 134.799 92.8351 138.593L94.2367 137.167C90.8027 133.793 89.0639 129.421 89.0639 123.96H87.0639ZM92.8478 138.606C96.7203 142.278 101.087 144.16 105.92 144.16V142.16C101.665 142.16 97.7755 140.522 94.224 137.154L92.8478 138.606ZM105.92 144.16C110.748 144.16 115.083 142.314 118.896 138.702L117.52 137.25C114.036 140.55 110.18 142.16 105.92 142.16V144.16ZM118.896 138.702C122.775 135.027 124.68 130.107 124.68 124.056H122.68C122.68 129.653 120.937 134.013 117.52 137.25L118.896 138.702ZM124.68 124.056C124.68 117.999 122.739 113.05 118.8 109.314L117.424 110.766C120.908 114.07 122.68 118.465 122.68 124.056H124.68ZM118.806 109.32C114.995 105.643 110.658 103.76 105.824 103.76V105.76C110.078 105.76 113.932 107.397 117.418 110.76L118.806 109.32ZM105.824 103.76C100.984 103.76 96.6445 105.68 92.8351 109.423L94.2367 110.849C97.7232 107.424 101.576 105.76 105.824 105.76V103.76ZM92.8415 109.416C88.9732 113.149 87.0639 118.029 87.0639 123.96H89.0639C89.0639 118.499 90.8026 114.163 94.2302 110.856L92.8415 109.416ZM192.357 91.608L191.483 91.1224L191.478 91.1312L191.474 91.1401L192.357 91.608ZM195.141 89.304L195.443 90.2576L195.443 90.2576L195.141 89.304ZM204.069 89.208L203.787 90.1674L203.794 90.1695L203.802 90.1715L204.069 89.208ZM206.565 90.36L205.907 91.1126L205.929 91.1316L205.951 91.1493L206.565 90.36ZM207.813 92.376L206.852 92.6507L206.863 92.6894L206.877 92.7271L207.813 92.376ZM208.197 153.912L207.214 153.733L207.206 153.777L207.201 153.821L208.197 153.912ZM207.333 156.408L206.451 155.937L206.446 155.948L207.333 156.408ZM194.661 158.424L194.29 159.352L194.29 159.352L194.661 158.424ZM192.261 156.6L191.461 157.2L191.469 157.21L192.261 156.6ZM163.845 118.968L164.637 118.357L162.845 116.035V118.968H163.845ZM163.653 153.912L162.67 153.733L162.662 153.777L162.657 153.821L163.653 153.912ZM162.789 156.408L161.907 155.937L161.902 155.948L162.789 156.408ZM148.005 156.408L148.893 155.948L148.888 155.937L148.005 156.408ZM147.045 153.816L146.049 153.899L146.052 153.94L146.059 153.98L147.045 153.816ZM147.813 91.608L146.939 91.1224L146.934 91.1312L146.93 91.1401L147.813 91.608ZM150.597 89.304L150.899 90.2576L150.899 90.2576L150.597 89.304ZM159.813 89.304L159.481 90.247L159.513 90.2584L159.546 90.2675L159.813 89.304ZM162.213 90.456L161.506 91.1631L161.557 91.2134L161.613 91.256L162.213 90.456ZM164.421 92.952L165.227 92.3597L165.21 92.3369L165.192 92.3151L164.421 92.952ZM191.493 129.336L190.702 129.947L192.493 132.269V129.336H191.493ZM193.232 92.0936C193.752 91.1569 194.479 90.5618 195.443 90.2576L194.84 88.3504C193.372 88.8142 192.243 89.7551 191.483 91.1224L193.232 92.0936ZM195.443 90.2576C196.531 89.914 197.926 89.728 199.653 89.728V87.728C197.797 87.728 196.184 87.926 194.84 88.3504L195.443 90.2576ZM199.653 89.728C201.466 89.728 202.83 89.8859 203.787 90.1674L204.352 88.2486C203.132 87.8901 201.552 87.728 199.653 87.728V89.728ZM203.802 90.1715C204.903 90.4774 205.563 90.8118 205.907 91.1126L207.224 89.6074C206.544 89.0122 205.54 88.5786 204.337 88.2445L203.802 90.1715ZM205.951 91.1493C206.319 91.4349 206.638 91.902 206.852 92.6507L208.775 92.1013C208.477 91.058 207.964 90.1811 207.179 89.5706L205.951 91.1493ZM206.877 92.7271C207.194 93.5734 207.389 95.0531 207.389 97.272H209.389C209.389 95.0109 209.2 93.2266 208.75 92.0249L206.877 92.7271ZM207.389 97.272V150.552H209.389V97.272H207.389ZM207.389 150.552C207.389 152.08 207.324 153.124 207.214 153.733L209.181 154.091C209.326 153.292 209.389 152.096 209.389 150.552H207.389ZM207.201 153.821C207.154 154.34 206.931 155.038 206.451 155.937L208.216 156.879C208.76 155.858 209.112 154.892 209.193 154.003L207.201 153.821ZM206.446 155.948C206.152 156.513 205.556 157.028 204.462 157.407C203.361 157.788 201.836 158 199.845 158V160C201.95 160 203.722 159.78 205.116 159.297C206.519 158.812 207.618 158.031 208.221 156.868L206.446 155.948ZM199.845 158C197.346 158 195.795 157.8 195.033 157.496L194.29 159.352C195.448 159.816 197.352 160 199.845 160V158ZM195.033 157.496C194.242 157.179 193.586 156.682 193.054 155.99L191.469 157.21C192.216 158.182 193.161 158.901 194.29 159.352L195.033 157.496ZM193.061 156C178.662 136.801 169.186 124.251 164.637 118.357L163.054 119.579C167.593 125.461 177.06 137.999 191.461 157.2L193.061 156ZM162.845 118.968V150.552H164.845V118.968H162.845ZM162.845 150.552C162.845 152.08 162.78 153.124 162.67 153.733L164.637 154.091C164.782 153.292 164.845 152.096 164.845 150.552H162.845ZM162.657 153.821C162.61 154.34 162.387 155.038 161.907 155.937L163.672 156.879C164.216 155.858 164.568 154.892 164.649 154.003L162.657 153.821ZM161.902 155.948C161.608 156.513 161.012 157.028 159.918 157.407C158.817 157.788 157.292 158 155.301 158V160C157.406 160 159.178 159.78 160.572 159.297C161.975 158.812 163.074 158.031 163.677 156.868L161.902 155.948ZM155.301 158C153.377 158 151.903 157.789 150.836 157.41C149.779 157.034 149.191 156.521 148.893 155.948L147.118 156.868C147.716 158.023 148.792 158.806 150.167 159.294C151.532 159.779 153.258 160 155.301 160V158ZM148.888 155.937C148.408 155.038 148.136 154.279 148.032 153.652L146.059 153.98C146.21 154.889 146.579 155.858 147.123 156.879L148.888 155.937ZM148.042 153.733C147.981 153.007 147.949 151.92 147.949 150.456H145.949C145.949 151.936 145.981 153.089 146.049 153.899L148.042 153.733ZM147.949 150.456V96.888H145.949V150.456H147.949ZM147.949 96.888C147.949 94.4893 148.241 92.9373 148.697 92.0759L146.93 91.1401C146.234 92.4547 145.949 94.4226 145.949 96.888H147.949ZM148.688 92.0936C149.208 91.1569 149.935 90.5618 150.899 90.2576L150.296 88.3504C148.828 88.8142 147.699 89.7551 146.939 91.1224L148.688 92.0936ZM150.899 90.2576C151.981 89.9157 153.437 89.728 155.301 89.728V87.728C153.325 87.728 151.646 87.9243 150.296 88.3504L150.899 90.2576ZM155.301 89.728C157.173 89.728 158.547 89.9175 159.481 90.247L160.146 88.361C158.904 87.9225 157.27 87.728 155.301 87.728V89.728ZM159.546 90.2675C160.655 90.5757 161.247 90.9035 161.506 91.1631L162.92 89.7489C162.284 89.1125 161.276 88.6723 160.081 88.3405L159.546 90.2675ZM161.613 91.256C161.609 91.2529 161.656 91.2912 161.777 91.4158C161.887 91.5287 162.03 91.6844 162.208 91.8866C162.565 92.2903 163.045 92.8564 163.65 93.5889L165.192 92.3151C164.581 91.5756 164.085 90.9897 163.706 90.5614C163.357 90.1667 163.039 89.8254 162.813 89.656L161.613 91.256ZM163.616 93.5443C177.118 111.911 186.149 124.048 190.702 129.947L192.285 128.725C187.749 122.848 178.732 110.729 165.227 92.3597L163.616 93.5443ZM192.493 129.336V96.888H190.493V129.336H192.493ZM192.493 96.888C192.493 94.4893 192.785 92.9373 193.241 92.0759L191.474 91.1401C190.778 92.4547 190.493 94.4226 190.493 96.888H192.493ZM262.027 91.224L262.875 91.754L262.875 91.754L262.027 91.224ZM276.235 90.168L275.621 90.9574L275.621 90.9574L276.235 90.168ZM277.483 92.184L276.522 92.4587L276.53 92.488L276.54 92.5168L277.483 92.184ZM270.187 149.208L270.974 149.825L270.979 149.819L270.984 149.813L270.187 149.208ZM260.299 157.176L260.741 158.073L260.752 158.068L260.299 157.176ZM233.515 157.08L233.056 157.969L233.062 157.972L233.515 157.08ZM223.819 149.016L224.619 148.416L224.614 148.409L223.819 149.016ZM216.139 93.72L215.153 93.5556L215.147 93.5924L215.143 93.6295L216.139 93.72ZM217.099 91.128L217.981 91.5986L217.981 91.5986L217.099 91.128ZM219.691 89.112L219.39 88.1584L219.39 88.1584L219.691 89.112ZM229.483 89.112L229.182 90.0656L229.182 90.0656L229.483 89.112ZM231.979 91.128L231.073 91.5509L231.082 91.5709L231.093 91.5906L231.979 91.128ZM236.011 137.112L236.893 136.64L236.889 136.633L236.011 137.112ZM240.331 141.432L240.824 140.562L240.824 140.562L240.331 141.432ZM257.611 137.88L258.443 138.435L258.443 138.435L257.611 137.88ZM262.875 91.754C263.382 90.9437 264.109 90.3823 265.112 90.0656L264.51 88.1584C263.081 88.6097 261.953 89.4563 261.179 90.694L262.875 91.754ZM265.112 90.0656C266.2 89.722 267.595 89.536 269.323 89.536V87.536C267.467 87.536 265.854 87.734 264.51 88.1584L265.112 90.0656ZM269.323 89.536C271.136 89.536 272.5 89.6939 273.457 89.9754L274.021 88.0566C272.802 87.6981 271.222 87.536 269.323 87.536V89.536ZM273.457 89.9754C274.484 90.2774 275.183 90.6169 275.621 90.9574L276.849 89.3786C276.135 88.8231 275.17 88.3945 274.021 88.0566L273.457 89.9754ZM275.621 90.9574C275.988 91.2429 276.308 91.71 276.522 92.4587L278.445 91.9093C278.147 90.866 277.634 89.9891 276.849 89.3786L275.621 90.9574ZM276.54 92.5168C276.866 93.4392 277.059 94.9635 277.059 97.176H279.059C279.059 94.9085 278.869 93.1047 278.426 91.8512L276.54 92.5168ZM277.059 97.176V126.168H279.059V97.176H277.059ZM277.059 126.168C277.059 134.391 274.511 141.86 269.391 148.603L270.984 149.813C276.36 142.732 279.059 134.841 279.059 126.168H277.059ZM269.4 148.591C266.938 151.73 263.76 154.296 259.846 156.284L260.752 158.068C264.902 155.96 268.316 153.214 270.974 149.825L269.4 148.591ZM259.858 156.279C255.976 158.189 251.649 159.152 246.859 159.152V161.152C251.925 161.152 256.558 160.131 260.741 158.073L259.858 156.279ZM246.859 159.152C242.14 159.152 237.849 158.16 233.968 156.188L233.062 157.972C237.245 160.096 241.85 161.152 246.859 161.152V159.152ZM233.974 156.191C230.13 154.207 227.018 151.615 224.619 148.416L223.019 149.616C225.612 153.073 228.964 155.857 233.056 157.969L233.974 156.191ZM224.614 148.409C219.564 141.8 217.043 134.334 217.043 125.976H215.043C215.043 134.77 217.707 142.664 223.025 149.623L224.614 148.409ZM217.043 125.976V97.08H215.043V125.976H217.043ZM217.043 97.08C217.043 95.5477 217.075 94.4663 217.135 93.8105L215.143 93.6295C215.075 94.3817 215.043 95.5403 215.043 97.08H217.043ZM217.126 93.8844C217.23 93.2566 217.502 92.4979 217.981 91.5986L216.217 90.6574C215.672 91.6781 215.304 92.6474 215.153 93.5556L217.126 93.8844ZM217.981 91.5986C218.349 90.9088 218.98 90.3854 219.992 90.0656L219.39 88.1584C217.971 88.6066 216.873 89.4272 216.217 90.6574L217.981 91.5986ZM219.992 90.0656C221.07 89.7252 222.587 89.536 224.587 89.536V87.536C222.491 87.536 220.744 87.7308 219.39 88.1584L219.992 90.0656ZM224.587 89.536C226.587 89.536 228.104 89.7252 229.182 90.0656L229.784 88.1584C228.43 87.7308 226.683 87.536 224.587 87.536V89.536ZM229.182 90.0656C230.19 90.3839 230.767 90.8958 231.073 91.5509L232.885 90.7051C232.295 89.4402 231.208 88.6081 229.784 88.1584L229.182 90.0656ZM231.093 91.5906C231.756 92.863 232.131 94.6978 232.131 97.176H234.131C234.131 94.5342 233.738 92.337 232.866 90.6654L231.093 91.5906ZM232.131 97.176V125.976H234.131V97.176H232.131ZM232.131 125.976C232.131 130.052 233.135 133.928 235.133 137.591L236.889 136.633C235.047 133.256 234.131 129.708 234.131 125.976H232.131ZM235.13 137.584C236.187 139.557 237.768 141.129 239.838 142.302L240.824 140.562C239.054 139.559 237.756 138.251 236.893 136.64L235.13 137.584ZM239.838 142.302C241.935 143.49 244.383 144.064 247.147 144.064V142.064C244.663 142.064 242.568 141.55 240.824 140.562L239.838 142.302ZM247.147 144.064C252.105 144.064 255.928 142.207 258.443 138.435L256.779 137.325C254.686 140.465 251.534 142.064 247.147 142.064V144.064ZM258.443 138.435C260.867 134.799 262.067 130.602 262.067 125.88H260.067C260.067 130.246 258.963 134.049 256.779 137.325L258.443 138.435ZM262.067 125.88V96.504H260.067V125.88H262.067ZM262.067 96.504C262.067 94.0338 262.395 92.5225 262.875 91.754L261.179 90.694C260.379 91.9734 260.067 93.9822 260.067 96.504H262.067Z" fill="black"/>
<path d="M53.6848 40.176H66.3568C68.9488 40.272 70.5328 40.944 71.1088 42.192C71.5888 43.104 71.8288 44.448 71.8288 46.224V62.064C71.8288 63.6 71.1568 65.064 69.8128 66.456C65.7808 70.632 59.7328 72.72 51.6688 72.72C44.5168 72.72 38.3008 70.032 33.0208 64.656C27.7408 59.232 25.1008 52.704 25.1008 45.072C25.1008 37.44 27.7888 31.08 33.1648 25.992C38.5408 20.856 44.8768 18.288 52.1728 18.288C57.8368 18.288 63.1888 20.16 68.2288 23.904C69.5248 24.864 70.1728 25.944 70.1728 27.144C70.1728 28.296 69.6208 29.64 68.5168 31.176C66.6448 33.72 64.9408 34.992 63.4048 34.992C62.4928 34.992 61.0288 34.344 59.0128 33.048C56.9968 31.704 54.5968 31.032 51.8128 31.032C48.1648 31.032 44.9248 32.328 42.0928 34.92C39.2608 37.464 37.8448 40.824 37.8448 45C37.8448 49.128 39.2848 52.656 42.1648 55.584C45.0448 58.464 48.3088 59.904 51.9568 59.904C54.5968 59.904 56.9728 59.472 59.0848 58.608V50.76H53.3968C51.9088 50.76 50.8528 50.568 50.2288 50.184C49.6048 49.8 49.1968 49.248 49.0048 48.528C48.8128 47.76 48.7168 46.752 48.7168 45.504C48.7168 44.208 48.8128 43.176 49.0048 42.408C49.2448 41.64 49.6528 41.112 50.2288 40.824C51.0928 40.392 52.2448 40.176 53.6848 40.176Z" fill="#EBBC6B"/>
<path d="M66.3568 40.176L66.3938 39.1767L66.3753 39.176H66.3568V40.176ZM71.1088 42.192L70.2008 42.6111L70.2117 42.6347L70.2239 42.6577L71.1088 42.192ZM69.8128 66.456L69.0934 65.7614L69.0934 65.7614L69.8128 66.456ZM33.0208 64.656L32.3042 65.3535L32.3073 65.3567L33.0208 64.656ZM33.1648 25.992L33.8522 26.7183L33.8556 26.7151L33.1648 25.992ZM68.2288 23.904L67.6325 24.7067L67.6336 24.7076L68.2288 23.904ZM68.5168 31.176L69.3223 31.7687L69.3288 31.7596L68.5168 31.176ZM59.0128 33.048L58.4581 33.88L58.465 33.8847L58.472 33.8892L59.0128 33.048ZM42.0928 34.92L42.7611 35.6639L42.7679 35.6577L42.0928 34.92ZM42.1648 55.584L41.4518 56.2853L41.4577 56.2911L42.1648 55.584ZM59.0848 58.608L59.4634 59.5335L60.0848 59.2794V58.608H59.0848ZM59.0848 50.76H60.0848V49.76H59.0848V50.76ZM50.2288 50.184L49.7047 51.0357L49.7047 51.0357L50.2288 50.184ZM49.0048 48.528L48.0346 48.7705L48.0365 48.7781L48.0385 48.7857L49.0048 48.528ZM49.0048 42.408L48.0503 42.1097L48.0417 42.1374L48.0346 42.1655L49.0048 42.408ZM50.2288 40.824L49.7816 39.9296L49.7816 39.9296L50.2288 40.824ZM53.6848 41.176H66.3568V39.176H53.6848V41.176ZM66.3198 41.1753C68.8694 41.2697 69.8857 41.9283 70.2008 42.6111L72.0167 41.7729C71.1798 39.9596 69.0282 39.2743 66.3938 39.1767L66.3198 41.1753ZM70.2239 42.6577C70.5919 43.3571 70.8288 44.5084 70.8288 46.224H72.8288C72.8288 44.3876 72.5856 42.8509 71.9937 41.7263L70.2239 42.6577ZM70.8288 46.224V62.064H72.8288V46.224H70.8288ZM70.8288 62.064C70.8288 63.278 70.3064 64.5051 69.0934 65.7614L70.5322 67.1506C72.0072 65.6229 72.8288 63.922 72.8288 62.064H70.8288ZM69.0934 65.7614C65.3136 69.6762 59.5695 71.72 51.6688 71.72V73.72C59.896 73.72 66.248 71.5878 70.5322 67.1506L69.0934 65.7614ZM51.6688 71.72C44.8007 71.72 38.8374 69.1513 33.7342 63.9553L32.3073 65.3567C37.7641 70.9127 44.2328 73.72 51.6688 73.72V71.72ZM33.7373 63.9585C28.6408 58.7229 26.1008 52.4458 26.1008 45.072H24.1008C24.1008 52.9622 26.8408 59.7411 32.3042 65.3535L33.7373 63.9585ZM26.1008 45.072C26.1008 37.7051 28.6826 31.6109 33.8522 26.7183L32.4774 25.2657C26.8949 30.5491 24.1008 37.1749 24.1008 45.072H26.1008ZM33.8556 26.7151C39.0495 21.753 45.1395 19.288 52.1728 19.288V17.288C44.6141 17.288 38.0321 19.959 32.474 25.2689L33.8556 26.7151ZM52.1728 19.288C57.5987 19.288 62.7452 21.0762 67.6325 24.7067L68.8251 23.1013C63.6324 19.2438 58.0749 17.288 52.1728 17.288V19.288ZM67.6336 24.7076C68.7699 25.5493 69.1728 26.3629 69.1728 27.144H71.1728C71.1728 25.5251 70.2797 24.1787 68.824 23.1004L67.6336 24.7076ZM69.1728 27.144C69.1728 27.9905 68.7581 29.1269 67.7048 30.5924L69.3288 31.7596C70.4835 30.1531 71.1728 28.6015 71.1728 27.144H69.1728ZM67.7113 30.5833C66.8083 31.8105 65.9813 32.6807 65.2366 33.2366C64.4923 33.7922 63.8881 33.992 63.4048 33.992V35.992C64.4574 35.992 65.4732 35.5558 66.433 34.8394C67.3923 34.1233 68.3533 33.0855 69.3222 31.7687L67.7113 30.5833ZM63.4048 33.992C63.1563 33.992 62.714 33.8954 62.0275 33.5916C61.3597 33.296 60.5372 32.8392 59.5535 32.2068L58.472 33.8892C59.5043 34.5528 60.4219 35.068 61.218 35.4204C61.9955 35.7646 62.7413 35.992 63.4048 35.992V33.992ZM59.5675 32.2159C57.3637 30.7468 54.764 30.032 51.8128 30.032V32.032C54.4296 32.032 56.6298 32.6612 58.4581 33.88L59.5675 32.2159ZM51.8128 30.032C47.9009 30.032 44.4234 31.4313 41.4176 34.1823L42.7679 35.6577C45.4262 33.2247 48.4287 32.032 51.8128 32.032V30.032ZM41.4245 34.1761C38.3595 36.9294 36.8448 40.571 36.8448 45H38.8448C38.8448 41.077 40.1621 37.9986 42.761 35.6639L41.4245 34.1761ZM36.8448 45C36.8448 49.3888 38.3868 53.1691 41.4519 56.2852L42.8777 54.8828C40.1827 52.1429 38.8448 48.8671 38.8448 45H36.8448ZM41.4577 56.2911C44.5013 59.3347 48.0116 60.904 51.9568 60.904V58.904C48.606 58.904 45.5883 57.5933 42.8719 54.8769L41.4577 56.2911ZM51.9568 60.904C54.7065 60.904 57.2139 60.4538 59.4634 59.5335L58.7061 57.6825C56.7317 58.4902 54.4871 58.904 51.9568 58.904V60.904ZM60.0848 58.608V50.76H58.0848V58.608H60.0848ZM59.0848 49.76H53.3968V51.76H59.0848V49.76ZM53.3968 49.76C51.9385 49.76 51.1254 49.5616 50.7529 49.3323L49.7047 51.0357C50.5802 51.5744 51.879 51.76 53.3968 51.76V49.76ZM50.7529 49.3323C50.3509 49.085 50.0983 48.7477 49.971 48.2703L48.0385 48.7857C48.2952 49.7483 48.8586 50.515 49.7047 51.0357L50.7529 49.3323ZM49.9749 48.2855C49.8107 47.6287 49.7168 46.7114 49.7168 45.504H47.7168C47.7168 46.7926 47.8148 47.8913 48.0346 48.7705L49.9749 48.2855ZM49.7168 45.504C49.7168 44.245 49.8113 43.3051 49.9749 42.6505L48.0346 42.1655C47.8143 43.0468 47.7168 44.171 47.7168 45.504H49.7168ZM49.9593 42.7063C50.1397 42.1289 50.4007 41.8561 50.676 41.7184L49.7816 39.9296C48.9048 40.3679 48.3499 41.1511 48.0503 42.1097L49.9593 42.7063ZM50.676 41.7184C51.3498 41.3815 52.3301 41.176 53.6848 41.176V39.176C52.1595 39.176 50.8357 39.4025 49.7816 39.9296L50.676 41.7184Z" fill="black"/>
<path d="M161.685 40.176H174.357C176.949 40.272 178.533 40.944 179.109 42.192C179.589 43.104 179.829 44.448 179.829 46.224V62.064C179.829 63.6 179.157 65.064 177.813 66.456C173.781 70.632 167.733 72.72 159.669 72.72C152.517 72.72 146.301 70.032 141.021 64.656C135.741 59.232 133.101 52.704 133.101 45.072C133.101 37.44 135.789 31.08 141.165 25.992C146.541 20.856 152.877 18.288 160.173 18.288C165.837 18.288 171.189 20.16 176.229 23.904C177.525 24.864 178.173 25.944 178.173 27.144C178.173 28.296 177.621 29.64 176.517 31.176C174.645 33.72 172.941 34.992 171.405 34.992C170.493 34.992 169.029 34.344 167.013 33.048C164.997 31.704 162.597 31.032 159.813 31.032C156.165 31.032 152.925 32.328 150.093 34.92C147.261 37.464 145.845 40.824 145.845 45C145.845 49.128 147.285 52.656 150.165 55.584C153.045 58.464 156.309 59.904 159.957 59.904C162.597 59.904 164.973 59.472 167.085 58.608V50.76H161.397C159.909 50.76 158.853 50.568 158.229 50.184C157.605 49.8 157.197 49.248 157.005 48.528C156.813 47.76 156.717 46.752 156.717 45.504C156.717 44.208 156.813 43.176 157.005 42.408C157.245 41.64 157.653 41.112 158.229 40.824C159.093 40.392 160.245 40.176 161.685 40.176Z" fill="#EBBC6B"/>
<path d="M174.357 40.176L174.394 39.1767L174.375 39.176H174.357V40.176ZM179.109 42.192L178.201 42.6111L178.212 42.6347L178.224 42.6577L179.109 42.192ZM177.813 66.456L177.093 65.7614L177.093 65.7614L177.813 66.456ZM141.021 64.656L140.304 65.3535L140.307 65.3567L141.021 64.656ZM141.165 25.992L141.852 26.7183L141.856 26.7151L141.165 25.992ZM176.229 23.904L175.632 24.7067L175.634 24.7076L176.229 23.904ZM176.517 31.176L177.322 31.7687L177.329 31.7596L176.517 31.176ZM167.013 33.048L166.458 33.88L166.465 33.8847L166.472 33.8892L167.013 33.048ZM150.093 34.92L150.761 35.6639L150.768 35.6577L150.093 34.92ZM150.165 55.584L149.452 56.2853L149.458 56.2911L150.165 55.584ZM167.085 58.608L167.463 59.5335L168.085 59.2794V58.608H167.085ZM167.085 50.76H168.085V49.76H167.085V50.76ZM158.229 50.184L157.705 51.0357L157.705 51.0357L158.229 50.184ZM157.005 48.528L156.035 48.7705L156.037 48.7781L156.039 48.7857L157.005 48.528ZM157.005 42.408L156.05 42.1097L156.042 42.1374L156.035 42.1655L157.005 42.408ZM158.229 40.824L157.782 39.9296L157.782 39.9296L158.229 40.824ZM161.685 41.176H174.357V39.176H161.685V41.176ZM174.32 41.1753C176.869 41.2697 177.886 41.9283 178.201 42.6111L180.017 41.7729C179.18 39.9596 177.028 39.2743 174.394 39.1767L174.32 41.1753ZM178.224 42.6577C178.592 43.3571 178.829 44.5084 178.829 46.224H180.829C180.829 44.3876 180.586 42.8509 179.994 41.7263L178.224 42.6577ZM178.829 46.224V62.064H180.829V46.224H178.829ZM178.829 62.064C178.829 63.278 178.306 64.5051 177.093 65.7614L178.532 67.1506C180.007 65.6229 180.829 63.922 180.829 62.064H178.829ZM177.093 65.7614C173.314 69.6762 167.57 71.72 159.669 71.72V73.72C167.896 73.72 174.248 71.5878 178.532 67.1506L177.093 65.7614ZM159.669 71.72C152.801 71.72 146.837 69.1513 141.734 63.9553L140.307 65.3567C145.764 70.9127 152.233 73.72 159.669 73.72V71.72ZM141.737 63.9585C136.641 58.7229 134.101 52.4458 134.101 45.072H132.101C132.101 52.9622 134.841 59.7411 140.304 65.3535L141.737 63.9585ZM134.101 45.072C134.101 37.7051 136.683 31.6109 141.852 26.7183L140.477 25.2657C134.895 30.5491 132.101 37.1749 132.101 45.072H134.101ZM141.856 26.7151C147.049 21.753 153.14 19.288 160.173 19.288V17.288C152.614 17.288 146.032 19.959 140.474 25.2689L141.856 26.7151ZM160.173 19.288C165.599 19.288 170.745 21.0762 175.632 24.7067L176.825 23.1013C171.632 19.2438 166.075 17.288 160.173 17.288V19.288ZM175.634 24.7076C176.77 25.5493 177.173 26.3629 177.173 27.144H179.173C179.173 25.5251 178.28 24.1787 176.824 23.1004L175.634 24.7076ZM177.173 27.144C177.173 27.9905 176.758 29.1269 175.705 30.5924L177.329 31.7596C178.483 30.1531 179.173 28.6015 179.173 27.144H177.173ZM175.711 30.5833C174.808 31.8105 173.981 32.6807 173.237 33.2366C172.492 33.7922 171.888 33.992 171.405 33.992V35.992C172.457 35.992 173.473 35.5558 174.433 34.8394C175.392 34.1233 176.353 33.0855 177.322 31.7687L175.711 30.5833ZM171.405 33.992C171.156 33.992 170.714 33.8954 170.028 33.5916C169.36 33.296 168.537 32.8392 167.554 32.2068L166.472 33.8892C167.504 34.5528 168.422 35.068 169.218 35.4204C169.996 35.7646 170.741 35.992 171.405 35.992V33.992ZM167.567 32.2159C165.364 30.7468 162.764 30.032 159.813 30.032V32.032C162.43 32.032 164.63 32.6612 166.458 33.88L167.567 32.2159ZM159.813 30.032C155.901 30.032 152.423 31.4313 149.418 34.1823L150.768 35.6577C153.426 33.2247 156.429 32.032 159.813 32.032V30.032ZM149.425 34.1761C146.36 36.9294 144.845 40.571 144.845 45H146.845C146.845 41.077 148.162 37.9986 150.761 35.6639L149.425 34.1761ZM144.845 45C144.845 49.3888 146.387 53.1691 149.452 56.2852L150.878 54.8828C148.183 52.1429 146.845 48.8671 146.845 45H144.845ZM149.458 56.2911C152.501 59.3347 156.012 60.904 159.957 60.904V58.904C156.606 58.904 153.588 57.5933 150.872 54.8769L149.458 56.2911ZM159.957 60.904C162.706 60.904 165.214 60.4538 167.463 59.5335L166.706 57.6825C164.732 58.4902 162.487 58.904 159.957 58.904V60.904ZM168.085 58.608V50.76H166.085V58.608H168.085ZM167.085 49.76H161.397V51.76H167.085V49.76ZM161.397 49.76C159.939 49.76 159.125 49.5616 158.753 49.3323L157.705 51.0357C158.58 51.5744 159.879 51.76 161.397 51.76V49.76ZM158.753 49.3323C158.351 49.085 158.098 48.7477 157.971 48.2703L156.039 48.7857C156.295 49.7483 156.859 50.515 157.705 51.0357L158.753 49.3323ZM157.975 48.2855C157.811 47.6287 157.717 46.7114 157.717 45.504H155.717C155.717 46.7926 155.815 47.8913 156.035 48.7705L157.975 48.2855ZM157.717 45.504C157.717 44.245 157.811 43.3051 157.975 42.6505L156.035 42.1655C155.814 43.0468 155.717 44.171 155.717 45.504H157.717ZM157.959 42.7063C158.14 42.1289 158.401 41.8561 158.676 41.7184L157.782 39.9296C156.905 40.3679 156.35 41.1511 156.05 42.1097L157.959 42.7063ZM158.676 41.7184C159.35 41.3815 160.33 41.176 161.685 41.176V39.176C160.159 39.176 158.836 39.4025 157.782 39.9296L158.676 41.7184Z" fill="black"/>
<path d="M102.734 23.576C109.838 23.576 116.006 26.144 121.238 31.28C126.47 36.416 129.086 42.8 129.086 50.432C129.086 58.016 126.59 64.496 121.598 69.872C116.606 75.2 110.462 77.864 103.166 77.864C95.8699 77.864 89.6539 75.224 84.5179 69.944C79.4299 64.664 76.8859 58.376 76.8859 51.08C76.8859 47.096 77.6059 43.376 79.0459 39.92C80.4859 36.416 82.4059 33.488 84.8059 31.136C87.2059 28.784 89.9659 26.936 93.0859 25.592C96.2059 24.248 99.4219 23.576 102.734 23.576ZM89.6299 50.72C89.6299 54.992 90.9979 58.472 93.7339 61.16C96.5179 63.8 99.6139 65.12 103.022 65.12C106.43 65.12 109.502 63.824 112.238 61.232C114.974 58.64 116.342 55.16 116.342 50.792C116.342 46.424 114.95 42.92 112.166 40.28C109.43 37.64 106.358 36.32 102.95 36.32C99.5419 36.32 96.4699 37.664 93.7339 40.352C90.9979 42.992 89.6299 46.448 89.6299 50.72Z" fill="#EBBC6B"/>
<path d="M121.238 31.28L121.938 30.5664L121.938 30.5664L121.238 31.28ZM121.598 69.872L122.328 70.5557L122.331 70.5525L121.598 69.872ZM84.5179 69.944L83.7979 70.6379L83.8011 70.6413L84.5179 69.944ZM79.0459 39.92L79.969 40.3046L79.9709 40.3001L79.0459 39.92ZM84.8059 31.136L85.5059 31.8502L85.5059 31.8502L84.8059 31.136ZM93.0859 25.592L92.6903 24.6736L92.6903 24.6736L93.0859 25.592ZM93.7339 61.16L93.0331 61.8733L93.0394 61.8795L93.0458 61.8856L93.7339 61.16ZM112.238 61.232L112.926 61.958L112.926 61.958L112.238 61.232ZM112.166 40.28L111.472 40.9996L111.478 41.0056L112.166 40.28ZM93.7339 40.352L94.4283 41.0716L94.4348 41.0653L93.7339 40.352ZM102.734 24.576C109.567 24.576 115.486 27.0346 120.537 31.9936L121.938 30.5664C116.526 25.2534 110.109 22.576 102.734 22.576V24.576ZM120.537 31.9936C125.569 36.9331 128.086 43.0561 128.086 50.432H130.086C130.086 42.5439 127.371 35.8989 121.938 30.5664L120.537 31.9936ZM128.086 50.432C128.086 57.773 125.679 64.0073 120.865 69.1915L122.331 70.5525C127.501 64.9847 130.086 58.259 130.086 50.432H128.086ZM120.868 69.1883C116.065 74.3147 110.185 76.864 103.166 76.864V78.864C110.739 78.864 117.147 76.0853 122.328 70.5557L120.868 69.1883ZM103.166 76.864C96.1429 76.864 90.1845 74.3353 85.2348 69.2467L83.8011 70.6413C89.1234 76.1127 95.597 78.864 103.166 78.864V76.864ZM85.238 69.2501C80.3286 64.1554 77.8859 58.1157 77.8859 51.08H75.8859C75.8859 58.6363 78.5313 65.1726 83.7979 70.6379L85.238 69.2501ZM77.8859 51.08C77.8859 47.2194 78.583 43.6311 79.969 40.3046L78.1229 39.5354C76.6289 43.1209 75.8859 46.9725 75.8859 51.08H77.8859ZM79.9709 40.3001C81.3659 36.9056 83.2144 34.0959 85.5059 31.8502L84.106 30.4218C81.5975 32.8801 79.606 35.9264 78.121 39.5399L79.9709 40.3001ZM85.5059 31.8502C87.8169 29.5854 90.4734 27.8062 93.4816 26.5104L92.6903 24.6736C89.4584 26.0658 86.595 27.9826 84.106 30.4218L85.5059 31.8502ZM93.4816 26.5104C96.4799 25.2188 99.5615 24.576 102.734 24.576V22.576C99.2823 22.576 95.932 23.2772 92.6903 24.6736L93.4816 26.5104ZM88.6299 50.72C88.6299 55.2268 90.0831 58.9751 93.0331 61.8733L94.4348 60.4467C91.9128 57.9689 90.6299 54.7572 90.6299 50.72H88.6299ZM93.0458 61.8856C95.9903 64.6778 99.325 66.12 103.022 66.12V64.12C99.9028 64.12 97.0455 62.9222 94.422 60.4344L93.0458 61.8856ZM103.022 66.12C106.714 66.12 110.025 64.7057 112.926 61.958L111.55 60.506C108.979 62.9423 106.146 64.12 103.022 64.12V66.12ZM112.926 61.958C115.893 59.1467 117.342 55.387 117.342 50.792H115.342C115.342 54.933 114.055 58.1333 111.55 60.506L112.926 61.958ZM117.342 50.792C117.342 46.1913 115.866 42.4101 112.854 39.5544L111.478 41.0056C114.034 43.4299 115.342 46.6567 115.342 50.792H117.342ZM112.86 39.5604C109.961 36.7631 106.648 35.32 102.95 35.32V37.32C106.068 37.32 108.899 38.5169 111.472 40.9996L112.86 39.5604ZM102.95 35.32C99.246 35.32 95.9306 36.792 93.0331 39.6387L94.4348 41.0653C97.0093 38.536 99.8378 37.32 102.95 37.32V35.32ZM93.0396 39.6324C90.0832 42.485 88.6299 46.2134 88.6299 50.72H90.6299C90.6299 46.6826 91.9126 43.499 94.4283 41.0716L93.0396 39.6324Z" fill="black"/>
<path d="M210.734 23.576C217.838 23.576 224.006 26.144 229.238 31.28C234.47 36.416 237.086 42.8 237.086 50.432C237.086 58.016 234.59 64.496 229.598 69.872C224.606 75.2 218.462 77.864 211.166 77.864C203.87 77.864 197.654 75.224 192.518 69.944C187.43 64.664 184.886 58.376 184.886 51.08C184.886 47.096 185.606 43.376 187.046 39.92C188.486 36.416 190.406 33.488 192.806 31.136C195.206 28.784 197.966 26.936 201.086 25.592C204.206 24.248 207.422 23.576 210.734 23.576ZM197.63 50.72C197.63 54.992 198.998 58.472 201.734 61.16C204.518 63.8 207.614 65.12 211.022 65.12C214.43 65.12 217.502 63.824 220.238 61.232C222.974 58.64 224.342 55.16 224.342 50.792C224.342 46.424 222.95 42.92 220.166 40.28C217.43 37.64 214.358 36.32 210.95 36.32C207.542 36.32 204.47 37.664 201.734 40.352C198.998 42.992 197.63 46.448 197.63 50.72Z" fill="#EBBC6B"/>
<path d="M229.238 31.28L229.938 30.5664L229.938 30.5664L229.238 31.28ZM229.598 69.872L230.328 70.5557L230.331 70.5525L229.598 69.872ZM192.518 69.944L191.798 70.6379L191.801 70.6413L192.518 69.944ZM187.046 39.92L187.969 40.3046L187.971 40.3001L187.046 39.92ZM192.806 31.136L193.506 31.8502L193.506 31.8502L192.806 31.136ZM201.086 25.592L200.69 24.6736L200.69 24.6736L201.086 25.592ZM201.734 61.16L201.033 61.8733L201.039 61.8795L201.046 61.8856L201.734 61.16ZM220.238 61.232L220.926 61.958L220.926 61.958L220.238 61.232ZM220.166 40.28L219.472 40.9996L219.478 41.0056L220.166 40.28ZM201.734 40.352L202.428 41.0716L202.435 41.0653L201.734 40.352ZM210.734 24.576C217.567 24.576 223.486 27.0346 228.537 31.9936L229.938 30.5664C224.526 25.2534 218.109 22.576 210.734 22.576V24.576ZM228.537 31.9936C233.569 36.9331 236.086 43.0561 236.086 50.432H238.086C238.086 42.5439 235.371 35.8989 229.938 30.5664L228.537 31.9936ZM236.086 50.432C236.086 57.773 233.679 64.0073 228.865 69.1915L230.331 70.5525C235.501 64.9847 238.086 58.259 238.086 50.432H236.086ZM228.868 69.1883C224.065 74.3147 218.185 76.864 211.166 76.864V78.864C218.739 78.864 225.147 76.0853 230.328 70.5557L228.868 69.1883ZM211.166 76.864C204.143 76.864 198.185 74.3353 193.235 69.2467L191.801 70.6413C197.123 76.1127 203.597 78.864 211.166 78.864V76.864ZM193.238 69.2501C188.329 64.1554 185.886 58.1157 185.886 51.08H183.886C183.886 58.6363 186.531 65.1726 191.798 70.6379L193.238 69.2501ZM185.886 51.08C185.886 47.2194 186.583 43.6311 187.969 40.3046L186.123 39.5354C184.629 43.1209 183.886 46.9725 183.886 51.08H185.886ZM187.971 40.3001C189.366 36.9056 191.214 34.0959 193.506 31.8502L192.106 30.4218C189.598 32.8801 187.606 35.9264 186.121 39.5399L187.971 40.3001ZM193.506 31.8502C195.817 29.5854 198.473 27.8062 201.482 26.5104L200.69 24.6736C197.458 26.0658 194.595 27.9826 192.106 30.4218L193.506 31.8502ZM201.482 26.5104C204.48 25.2188 207.562 24.576 210.734 24.576V22.576C207.282 22.576 203.932 23.2772 200.69 24.6736L201.482 26.5104ZM196.63 50.72C196.63 55.2268 198.083 58.9751 201.033 61.8733L202.435 60.4467C199.913 57.9689 198.63 54.7572 198.63 50.72H196.63ZM201.046 61.8856C203.99 64.6778 207.325 66.12 211.022 66.12V64.12C207.903 64.12 205.046 62.9222 202.422 60.4344L201.046 61.8856ZM211.022 66.12C214.714 66.12 218.025 64.7057 220.926 61.958L219.55 60.506C216.979 62.9423 214.146 64.12 211.022 64.12V66.12ZM220.926 61.958C223.893 59.1467 225.342 55.387 225.342 50.792H223.342C223.342 54.933 222.055 58.1333 219.55 60.506L220.926 61.958ZM225.342 50.792C225.342 46.1913 223.866 42.4101 220.854 39.5544L219.478 41.0056C222.034 43.4299 223.342 46.6567 223.342 50.792H225.342ZM220.86 39.5604C217.961 36.7631 214.648 35.32 210.95 35.32V37.32C214.068 37.32 216.899 38.5169 219.472 40.9996L220.86 39.5604ZM210.95 35.32C207.246 35.32 203.931 36.792 201.033 39.6387L202.435 41.0653C205.009 38.536 207.838 37.32 210.95 37.32V35.32ZM201.04 39.6324C198.083 42.485 196.63 46.2134 196.63 50.72H198.63C198.63 46.6826 199.913 43.499 202.428 41.0716L201.04 39.6324Z" fill="black"/>
<path d="M243.002 61.056C243.482 60.096 244.202 59.448 245.162 59.112C246.17 58.776 247.706 58.608 249.77 58.608C251.882 58.608 253.394 59.064 254.306 59.976C255.266 60.888 255.746 62.328 255.746 64.296V65.448C255.746 66.6 255.698 67.464 255.602 68.04C255.554 68.568 255.338 69.216 254.954 69.984C254.186 71.376 252.338 72.072 249.41 72.072C246.53 72.072 244.61 71.616 243.65 70.704C242.738 69.744 242.282 67.92 242.282 65.232C242.282 63.36 242.522 61.968 243.002 61.056ZM252.65 52.632C251.738 52.872 250.514 52.992 248.978 52.992C247.442 52.992 246.218 52.872 245.306 52.632C244.394 52.392 243.746 51.96 243.362 51.336C243.026 50.712 242.81 50.16 242.714 49.68C242.666 49.2 242.642 48.456 242.642 47.448V24.624C242.642 23.616 242.666 22.872 242.714 22.392C242.81 21.864 243.05 21.288 243.434 20.664C243.818 20.04 244.466 19.608 245.378 19.368C246.29 19.08 247.514 18.936 249.05 18.936C250.586 18.936 251.81 19.08 252.722 19.368C253.634 19.608 254.258 20.064 254.594 20.736C254.978 21.36 255.194 21.936 255.242 22.464C255.338 22.944 255.386 23.688 255.386 24.696V47.52C255.386 48.528 255.338 49.272 255.242 49.752C255.194 50.232 254.978 50.784 254.594 51.408C254.21 51.984 253.562 52.392 252.65 52.632Z" fill="#EBBC6B"/>
<path d="M243.002 61.056L243.887 61.5217L243.892 61.5125L243.897 61.5032L243.002 61.056ZM245.162 59.112L244.846 58.1633L244.839 58.1657L244.832 58.1681L245.162 59.112ZM254.306 59.976L253.599 60.6831L253.608 60.6922L253.618 60.701L254.306 59.976ZM255.602 68.04L254.616 67.8756L254.61 67.9124L254.606 67.9495L255.602 68.04ZM254.954 69.984L255.83 70.4671L255.84 70.4493L255.849 70.4312L254.954 69.984ZM243.65 70.704L242.925 71.3927L242.943 71.4113L242.962 71.429L243.65 70.704ZM252.65 52.632L252.396 51.6649L252.396 51.6649L252.65 52.632ZM245.306 52.632L245.561 51.6649L245.561 51.6649L245.306 52.632ZM243.362 51.336L242.482 51.8101L242.496 51.8355L242.511 51.8601L243.362 51.336ZM242.714 49.68L241.719 49.7795L241.724 49.8282L241.734 49.8761L242.714 49.68ZM242.714 22.392L241.73 22.2131L241.723 22.2526L241.719 22.2925L242.714 22.392ZM243.434 20.664L242.583 20.1399L242.583 20.1399L243.434 20.664ZM245.378 19.368L245.633 20.3351L245.656 20.3289L245.679 20.3216L245.378 19.368ZM252.722 19.368L252.421 20.3216L252.444 20.3289L252.468 20.3351L252.722 19.368ZM254.594 20.736L253.7 21.1832L253.72 21.2226L253.743 21.2601L254.594 20.736ZM255.242 22.464L254.246 22.5545L254.251 22.6077L254.262 22.6601L255.242 22.464ZM255.242 49.752L254.262 49.5559L254.252 49.6038L254.247 49.6525L255.242 49.752ZM254.594 51.408L255.426 51.9627L255.436 51.9476L255.446 51.9321L254.594 51.408ZM243.897 61.5032C244.268 60.7616 244.793 60.3008 245.493 60.0559L244.832 58.1681C243.612 58.5952 242.697 59.4304 242.108 60.6088L243.897 61.5032ZM245.479 60.0607C246.329 59.7773 247.732 59.608 249.77 59.608V57.608C247.68 57.608 246.012 57.7747 244.846 58.1633L245.479 60.0607ZM249.77 59.608C251.778 59.608 252.964 60.048 253.599 60.6831L255.013 59.2689C253.825 58.0799 251.986 57.608 249.77 57.608V59.608ZM253.618 60.701C254.299 61.3488 254.746 62.4689 254.746 64.296H256.746C256.746 62.1871 256.233 60.4272 254.995 59.251L253.618 60.701ZM254.746 64.296V65.448H256.746V64.296H254.746ZM254.746 65.448C254.746 66.5871 254.698 67.3838 254.616 67.8756L256.589 68.2044C256.699 67.5442 256.746 66.6129 256.746 65.448H254.746ZM254.606 67.9495C254.575 68.3002 254.418 68.8198 254.06 69.5368L255.849 70.4312C256.258 69.6122 256.534 68.8358 256.598 68.1305L254.606 67.9495ZM254.079 69.5009C253.597 70.3748 252.28 71.072 249.41 71.072V73.072C252.397 73.072 254.776 72.3772 255.83 70.4671L254.079 69.5009ZM249.41 71.072C248.016 71.072 246.9 70.9609 246.041 70.7571C245.175 70.5513 244.643 70.268 244.339 69.979L242.962 71.429C243.617 72.052 244.526 72.4527 245.579 72.7029C246.641 72.9551 247.925 73.072 249.41 73.072V71.072ZM244.375 70.0153C243.75 69.3574 243.282 67.8894 243.282 65.232H241.282C241.282 67.9506 241.726 70.1306 242.925 71.3927L244.375 70.0153ZM243.282 65.232C243.282 63.41 243.522 62.2159 243.887 61.5217L242.117 60.5903C241.523 61.7201 241.282 63.31 241.282 65.232H243.282ZM252.396 51.6649C251.602 51.8737 250.475 51.992 248.978 51.992V53.992C250.554 53.992 251.874 53.8703 252.905 53.5991L252.396 51.6649ZM248.978 51.992C247.482 51.992 246.354 51.8737 245.561 51.6649L245.052 53.5991C246.082 53.8703 247.403 53.992 248.978 53.992V51.992ZM245.561 51.6649C244.823 51.4708 244.428 51.1594 244.214 50.8119L242.511 51.8601C243.065 52.7606 243.965 53.3132 245.052 53.5991L245.561 51.6649ZM244.243 50.8619C243.935 50.2897 243.765 49.834 243.695 49.4839L241.734 49.8761C241.856 50.486 242.118 51.1343 242.482 51.8101L244.243 50.8619ZM243.709 49.5805C243.667 49.1528 243.642 48.4504 243.642 47.448H241.642C241.642 48.4616 241.666 49.2472 241.719 49.7795L243.709 49.5805ZM243.642 47.448V24.624H241.642V47.448H243.642ZM243.642 24.624C243.642 23.6216 243.667 22.9192 243.709 22.4915L241.719 22.2925C241.666 22.8248 241.642 23.6104 241.642 24.624H243.642ZM243.698 22.5709C243.765 22.2009 243.945 21.7424 244.286 21.1881L242.583 20.1399C242.156 20.8336 241.855 21.5271 241.73 22.2131L243.698 22.5709ZM244.286 21.1881C244.5 20.8406 244.895 20.5292 245.633 20.3351L245.124 18.4009C244.037 18.6868 243.137 19.2394 242.583 20.1399L244.286 21.1881ZM245.679 20.3216C246.453 20.0772 247.563 19.936 249.05 19.936V17.936C247.466 17.936 246.127 18.0828 245.077 18.4144L245.679 20.3216ZM249.05 19.936C250.538 19.936 251.647 20.0772 252.421 20.3216L253.023 18.4144C251.973 18.0828 250.635 17.936 249.05 17.936V19.936ZM252.468 20.3351C253.178 20.522 253.524 20.8316 253.7 21.1832L255.489 20.2888C254.993 19.2964 254.091 18.694 252.977 18.4009L252.468 20.3351ZM253.743 21.2601C254.075 21.8 254.217 22.2274 254.246 22.5545L256.238 22.3735C256.172 21.6446 255.882 20.92 255.446 20.2119L253.743 21.2601ZM254.262 22.6601C254.337 23.0383 254.386 23.7 254.386 24.696H256.386C256.386 23.676 256.339 22.8497 256.223 22.2679L254.262 22.6601ZM254.386 24.696V47.52H256.386V24.696H254.386ZM254.386 47.52C254.386 48.516 254.337 49.1777 254.262 49.5559L256.223 49.9481C256.339 49.3663 256.386 48.54 256.386 47.52H254.386ZM254.247 49.6525C254.22 49.9242 254.085 50.328 253.743 50.8839L255.446 51.9321C255.872 51.24 256.169 50.5398 256.237 49.8515L254.247 49.6525ZM253.762 50.8533C253.556 51.1622 253.158 51.4644 252.396 51.6649L252.905 53.5991C253.967 53.3196 254.864 52.8058 255.426 51.9627L253.762 50.8533Z" fill="black"/>
</svg>
