<svg width="509" height="90" viewBox="0 0 509 90" fill="none" xmlns="http://www.w3.org/2000/svg">
<path d="M59.7505 22.344C62.6092 23.368 64.0385 24.7333 64.0385 26.44C64.0385 26.9947 63.7825 28.04 63.2705 29.576L50.9825 65.096C50.8972 65.3947 50.7478 65.7573 50.5345 66.184C50.3212 66.6107 49.7452 67.1867 48.8065 67.912C47.9105 68.5947 46.8225 68.936 45.5425 68.936C44.3052 68.936 43.2172 68.5947 42.2785 67.912C41.3825 67.1867 40.7852 66.4827 40.4865 65.8L32.9985 43.72C28.2625 57.7147 25.8518 64.84 25.7665 65.096C25.6812 65.352 25.4892 65.7147 25.1905 66.184C24.8918 66.6533 24.5505 67.08 24.1665 67.464C23.1852 68.4453 22.0118 68.936 20.6465 68.936C19.2812 68.936 18.1505 68.616 17.2545 67.976C16.4012 67.336 15.8252 66.696 15.5265 66.056L15.0785 65.096L2.7265 29.576C2.25717 28.168 2.0225 27.1227 2.0225 26.44C2.0225 24.7333 3.45183 23.3893 6.3105 22.408C7.54783 21.9813 8.65717 21.768 9.6385 21.768C10.6625 21.768 11.4305 22.1093 11.9425 22.792C12.4972 23.4747 12.9878 24.52 13.4145 25.928L20.4545 47.304L27.4305 26.248C28.0278 24.456 29.1158 23.2187 30.6945 22.536C31.3772 22.2373 32.2518 22.088 33.3185 22.088C34.4278 22.088 35.4518 22.4507 36.3905 23.176C37.3292 23.8587 37.9265 24.5413 38.1825 25.224L45.5425 47.432L52.5825 25.928C52.9238 24.9467 53.2012 24.2213 53.4145 23.752C53.6278 23.2827 54.0118 22.8347 54.5665 22.408C55.1638 21.9387 55.8892 21.704 56.7425 21.704C57.5958 21.704 58.5985 21.9173 59.7505 22.344ZM89.576 21.512C95.8907 21.512 101.373 23.7947 106.024 28.36C110.675 32.9253 113 38.6 113 45.384C113 52.1253 110.781 57.8853 106.344 62.664C101.907 67.4 96.4453 69.768 89.96 69.768C83.4747 69.768 77.9493 67.4213 73.384 62.728C68.8613 58.0347 66.6 52.4453 66.6 45.96C66.6 42.4187 67.24 39.112 68.52 36.04C69.8 32.9253 71.5067 30.3227 73.64 28.232C75.7733 26.1413 78.2267 24.4987 81 23.304C83.7733 22.1093 86.632 21.512 89.576 21.512ZM77.928 45.64C77.928 49.4373 79.144 52.5307 81.576 54.92C84.0507 57.2667 86.8027 58.44 89.832 58.44C92.8613 58.44 95.592 57.288 98.024 54.984C100.456 52.68 101.672 49.5867 101.672 45.704C101.672 41.8213 100.435 38.7067 97.96 36.36C95.528 34.0133 92.7973 32.84 89.768 32.84C86.7387 32.84 84.008 34.0347 81.576 36.424C79.144 38.7707 77.928 41.8427 77.928 45.64ZM139.201 21.512C145.516 21.512 150.998 23.7947 155.649 28.36C160.3 32.9253 162.625 38.6 162.625 45.384C162.625 52.1253 160.406 57.8853 155.969 62.664C151.532 67.4 146.07 69.768 139.585 69.768C133.1 69.768 127.574 67.4213 123.009 62.728C118.486 58.0347 116.225 52.4453 116.225 45.96C116.225 42.4187 116.865 39.112 118.145 36.04C119.425 32.9253 121.132 30.3227 123.265 28.232C125.398 26.1413 127.852 24.4987 130.625 23.304C133.398 22.1093 136.257 21.512 139.201 21.512ZM127.553 45.64C127.553 49.4373 128.769 52.5307 131.201 54.92C133.676 57.2667 136.428 58.44 139.457 58.44C142.486 58.44 145.217 57.288 147.649 54.984C150.081 52.68 151.297 49.5867 151.297 45.704C151.297 41.8213 150.06 38.7067 147.585 36.36C145.153 34.0133 142.422 32.84 139.393 32.84C136.364 32.84 133.633 34.0347 131.201 36.424C128.769 38.7707 127.553 41.8427 127.553 45.64ZM216.666 23.88C217.007 24.52 217.199 25.096 217.242 25.608C217.327 26.12 217.37 26.8667 217.37 27.848V63.368C217.37 66.312 216.559 68.04 214.938 68.552C214.127 68.808 213.103 68.936 211.866 68.936C210.629 68.936 209.647 68.8293 208.922 68.616C208.197 68.4027 207.642 68.1467 207.258 67.848C206.874 67.5493 206.575 67.1227 206.362 66.568C206.149 65.8427 206.042 64.7333 206.042 63.24V41.8C204.975 43.1227 203.418 45.2347 201.37 48.136C199.322 50.9947 198.021 52.7867 197.466 53.512C196.911 54.2373 196.527 54.7493 196.314 55.048C196.101 55.304 195.567 55.688 194.714 56.2C193.903 56.6693 193.007 56.904 192.026 56.904C191.087 56.904 190.213 56.6907 189.402 56.264C188.634 55.7947 188.079 55.3467 187.738 54.92L187.226 54.216C186.373 53.1493 184.687 50.888 182.17 47.432C179.653 43.9333 178.287 42.056 178.074 41.8V63.368C178.074 64.3493 178.031 65.096 177.946 65.608C177.903 66.0773 177.711 66.6107 177.37 67.208C176.73 68.36 175.066 68.936 172.378 68.936C169.775 68.936 168.154 68.36 167.514 67.208C167.173 66.6107 166.959 66.056 166.874 65.544C166.831 65.032 166.81 64.264 166.81 63.24V27.72C166.81 26.7387 166.831 26.0133 166.874 25.544C166.959 25.032 167.173 24.456 167.514 23.816C168.154 22.7067 169.818 22.152 172.506 22.152C173.658 22.152 174.639 22.3013 175.45 22.6C176.303 22.856 176.858 23.1333 177.114 23.432L177.498 23.816L192.026 42.888C199.279 33.288 204.122 26.952 206.554 23.88C207.279 22.728 208.986 22.152 211.674 22.152C214.405 22.152 216.069 22.728 216.666 23.88ZM253.154 23.816C253.58 23.1333 254.199 22.664 255.01 22.408C255.82 22.152 256.823 22.024 258.018 22.024C259.255 22.024 260.236 22.1307 260.962 22.344C261.687 22.5573 262.242 22.8133 262.626 23.112C263.01 23.4107 263.287 23.8587 263.458 24.456C263.714 25.1813 263.842 26.2907 263.842 27.784V47.112C263.842 52.744 262.092 57.864 258.594 62.472C256.887 64.648 254.69 66.4187 252.002 67.784C249.314 69.1067 246.327 69.768 243.042 69.768C239.799 69.768 236.834 69.0853 234.146 67.72C231.5 66.3547 229.346 64.5627 227.682 62.344C224.226 57.8213 222.498 52.7013 222.498 46.984V27.72C222.498 26.696 222.519 25.9493 222.562 25.48C222.647 24.968 222.86 24.392 223.202 23.752C223.543 23.112 224.119 22.664 224.93 22.408C225.74 22.152 226.828 22.024 228.194 22.024C229.559 22.024 230.647 22.152 231.458 22.408C232.268 22.664 232.823 23.112 233.122 23.752C233.634 24.7333 233.89 26.0773 233.89 27.784V46.984C233.89 49.5867 234.53 52.0613 235.81 54.408C236.45 55.6027 237.41 56.5627 238.69 57.288C239.97 58.0133 241.484 58.376 243.234 58.376C246.348 58.376 248.674 57.224 250.21 54.92C251.746 52.616 252.514 49.9493 252.514 46.92V27.336C252.514 25.672 252.727 24.4987 253.154 23.816ZM280.263 59.528H297.671C299.079 59.528 300.103 59.6987 300.743 60.04C301.383 60.3387 301.81 60.8293 302.023 61.512C302.236 62.1947 302.343 63.112 302.343 64.264C302.343 65.3733 302.236 66.2693 302.023 66.952C301.81 67.6347 301.447 68.104 300.935 68.36C300.124 68.7867 299.015 69 297.607 69H274.567C271.58 69 269.831 68.1893 269.319 66.568C269.063 65.8853 268.935 64.7973 268.935 63.304V27.72C268.935 26.7387 268.956 26.0133 268.999 25.544C269.084 25.032 269.298 24.456 269.639 23.816C270.236 22.664 271.9 22.088 274.631 22.088C277.618 22.088 279.388 22.8773 279.943 24.456C280.156 25.1813 280.263 26.2907 280.263 27.784V59.528ZM347.133 40.712H358.397C360.701 40.7973 362.109 41.3947 362.621 42.504C363.048 43.3147 363.261 44.5093 363.261 46.088V60.168C363.261 61.5333 362.664 62.8347 361.469 64.072C357.885 67.784 352.509 69.64 345.341 69.64C338.984 69.64 333.458 67.2507 328.765 62.472C324.072 57.6507 321.725 51.848 321.725 45.064C321.725 38.28 324.114 32.6267 328.893 28.104C333.672 23.5387 339.304 21.256 345.789 21.256C350.824 21.256 355.581 22.92 360.061 26.248C361.213 27.1013 361.789 28.0613 361.789 29.128C361.789 30.152 361.298 31.3467 360.317 32.712C358.653 34.9733 357.138 36.104 355.773 36.104C354.962 36.104 353.661 35.528 351.869 34.376C350.077 33.1813 347.944 32.584 345.469 32.584C342.226 32.584 339.346 33.736 336.829 36.04C334.312 38.3013 333.053 41.288 333.053 45C333.053 48.6693 334.333 51.8053 336.893 54.408C339.453 56.968 342.354 58.248 345.597 58.248C347.944 58.248 350.056 57.864 351.933 57.096V50.12H346.877C345.554 50.12 344.616 49.9493 344.061 49.608C343.506 49.2667 343.144 48.776 342.973 48.136C342.802 47.4533 342.717 46.5573 342.717 45.448C342.717 44.296 342.802 43.3787 342.973 42.696C343.186 42.0133 343.549 41.544 344.061 41.288C344.829 40.904 345.853 40.712 347.133 40.712ZM390.389 21.512C396.703 21.512 402.186 23.7947 406.837 28.36C411.487 32.9253 413.813 38.6 413.813 45.384C413.813 52.1253 411.594 57.8853 407.157 62.664C402.719 67.4 397.258 69.768 390.773 69.768C384.287 69.768 378.762 67.4213 374.197 62.728C369.674 58.0347 367.413 52.4453 367.413 45.96C367.413 42.4187 368.053 39.112 369.333 36.04C370.613 32.9253 372.319 30.3227 374.453 28.232C376.586 26.1413 379.039 24.4987 381.812 23.304C384.586 22.1093 387.445 21.512 390.389 21.512ZM378.741 45.64C378.741 49.4373 379.957 52.5307 382.389 54.92C384.863 57.2667 387.615 58.44 390.645 58.44C393.674 58.44 396.405 57.288 398.837 54.984C401.269 52.68 402.485 49.5867 402.485 45.704C402.485 41.8213 401.247 38.7067 398.773 36.36C396.341 34.0133 393.61 32.84 390.581 32.84C387.551 32.84 384.821 34.0347 382.389 36.424C379.957 38.7707 378.741 41.8427 378.741 45.64ZM448.27 24.072C448.696 23.304 449.315 22.792 450.126 22.536C450.936 22.28 451.939 22.152 453.134 22.152C454.371 22.152 455.352 22.2587 456.078 22.472C456.846 22.6853 457.4 22.9413 457.742 23.24C458.126 23.5387 458.403 23.9867 458.574 24.584C458.83 25.2667 458.958 26.3547 458.958 27.848V63.368C458.958 64.392 458.915 65.1387 458.83 65.608C458.787 66.0773 458.595 66.632 458.254 67.272C457.656 68.424 455.992 69 453.262 69C451.598 69 450.446 68.872 449.806 68.616C449.166 68.36 448.632 67.9547 448.206 67.4C438.606 54.6 432.291 46.2373 429.262 42.312V63.368C429.262 64.392 429.219 65.1387 429.134 65.608C429.091 66.0773 428.899 66.632 428.558 67.272C427.96 68.424 426.296 69 423.566 69C420.92 69 419.299 68.424 418.702 67.272C418.36 66.632 418.147 66.056 418.062 65.544C418.019 65.032 417.998 64.2853 417.998 63.304V27.592C417.998 25.9707 418.19 24.7973 418.574 24.072C419 23.304 419.619 22.792 420.43 22.536C421.24 22.28 422.286 22.152 423.566 22.152C424.846 22.152 425.848 22.28 426.574 22.536C427.342 22.7493 427.875 23.0053 428.174 23.304C428.344 23.432 428.835 23.9867 429.646 24.968C438.648 37.2133 444.664 45.2987 447.694 49.224V27.592C447.694 25.9707 447.886 24.7973 448.27 24.072ZM494.716 23.816C495.143 23.1333 495.761 22.664 496.572 22.408C497.383 22.152 498.385 22.024 499.58 22.024C500.817 22.024 501.799 22.1307 502.524 22.344C503.249 22.5573 503.804 22.8133 504.188 23.112C504.572 23.4107 504.849 23.8587 505.02 24.456C505.276 25.1813 505.404 26.2907 505.404 27.784V47.112C505.404 52.744 503.655 57.864 500.156 62.472C498.449 64.648 496.252 66.4187 493.564 67.784C490.876 69.1067 487.889 69.768 484.604 69.768C481.361 69.768 478.396 69.0853 475.708 67.72C473.063 66.3547 470.908 64.5627 469.244 62.344C465.788 57.8213 464.06 52.7013 464.06 46.984V27.72C464.06 26.696 464.081 25.9493 464.124 25.48C464.209 24.968 464.423 24.392 464.764 23.752C465.105 23.112 465.681 22.664 466.492 22.408C467.303 22.152 468.391 22.024 469.756 22.024C471.121 22.024 472.209 22.152 473.02 22.408C473.831 22.664 474.385 23.112 474.684 23.752C475.196 24.7333 475.452 26.0773 475.452 27.784V46.984C475.452 49.5867 476.092 52.0613 477.372 54.408C478.012 55.6027 478.972 56.5627 480.252 57.288C481.532 58.0133 483.047 58.376 484.796 58.376C487.911 58.376 490.236 57.224 491.772 54.92C493.308 52.616 494.076 49.9493 494.076 46.92V27.336C494.076 25.672 494.289 24.4987 494.716 23.816Z" fill="#616264"/>
<path d="M1 79H508" stroke="#616264" stroke-width="2" stroke-linecap="round"/>
</svg>
